<?xml version="1.0" encoding="UTF-8" standalone="no"?>
<!-- Created with Inkscape (http://www.inkscape.org/) -->

<svg
   width="39.632019mm"
   height="40.666885mm"
   viewBox="0 0 39.632019 40.666885"
   version="1.1"
   id="svg5"
   xml:space="preserve"
   xmlns:inkscape="http://www.inkscape.org/namespaces/inkscape"
   xmlns:sodipodi="http://sodipodi.sourceforge.net/DTD/sodipodi-0.dtd"
   xmlns="http://www.w3.org/2000/svg"
   xmlns:svg="http://www.w3.org/2000/svg"><sodipodi:namedview
     id="namedview7"
     pagecolor="#ffffff"
     bordercolor="#000000"
     borderopacity="0.25"
     inkscape:showpageshadow="2"
     inkscape:pageopacity="0.0"
     inkscape:pagecheckerboard="0"
     inkscape:deskcolor="#d1d1d1"
     inkscape:document-units="mm"
     showgrid="false" /><defs
     id="defs2" /><path
     d="m 4.7928411,2.5912627 c 1.39746,-1.01529 5.9870299,-2.45216001 10.1095499,-0.381 2.05081,1.03047 5.1241,2.96334 9.92297,-0.40252 2.47862,-1.73849001 7.66339,-3.57117 12.01985,1.48061 2.02953,2.35338 4.32611,8.8589603 1.39171,14.3711103 -1.5928,2.9912 -5.14915,7.55721 -5.78133,12.93283 -0.39899,3.39055 -2.06304,8.43139 -5.0172,9.71268 -1.04775,0.45438 -3.55494,1.0855 -3.91936,-2.35197 0,0 -3.6e-4,-2.52589 -2.70031,-2.87408 0,0 -2.52592,0.10654 -2.52564,2.87408 5.3e-4,2.43876 -2.52486,3.3969 -5.02874,1.6563 -2.18034,-1.51589 -3.5735299,-4.18289 -4.2034499,-8.10119 -0.27796,-1.73108 -1.54228,-4.23016 -3.13585,-6.27133 -2.47456,-3.17007 -11.32251,-15.2421203 -1.1322,-22.6455203"
     style="fill:#ffffff;fill-opacity:1;fill-rule:nonzero;stroke:none;stroke-width:0.0352778"
     id="path14"
     inkscape:export-filename="gigi.svg"
     inkscape:export-xdpi="96"
     inkscape:export-ydpi="96" /><path
     d="m 24.825361,1.8077427 c -4.79887,3.36586 -7.87216,1.43299 -9.92297,0.40252 -0.8545,-0.42933 -1.7279,-0.70097 -2.5903,-0.86395 -4.2899599,-0.32667 -3.6393999,3.53342 -0.32879,4.14584 5.79053,1.07139 9.0194,-1.05868 12.84206,-3.68441"
     style="fill:#e6e7e9;fill-opacity:1;fill-rule:nonzero;stroke:none;stroke-width:0.0352778"
     id="path16" /><path
     d="m 27.575621,0.44355269 c 4.0326,0.43639 -1.20439,8.55945001 -7.75956,8.83920001 -6.1437,0.26141 -0.86194,2.0574003 4.4699,1.7921103 1.9745,-0.0981 5.74534,-1.6901603 7.49195,2.53506 0.60536,1.46509 0.73342,3.08505 -1.35185,6.19584 -3.5493,5.29484 -2.08456,13.23763 -7.77381,12.95577 -1.93576,-0.0956 -6.02703,-0.50765 -7.15356,2.98555 -0.4035,1.2499 -1.9141,5.4028 -5.25102,0.007 0.74125,1.68981 1.74335,2.97039 3.01667,3.85516 2.50388,1.74061 5.02927,0.78246 5.02874,-1.65629 -2.8e-4,-2.76754 2.52564,-2.87408 2.52564,-2.87408 2.69995,0.34819 2.70031,2.87408 2.70031,2.87408 0.36442,3.43746 2.87161,2.80635 3.91936,2.35197 2.95416,-1.28129 4.61821,-6.32213 5.0172,-9.71268 0.63218,-5.37563 4.18853,-9.94163 5.78133,-12.93283 2.9344,-5.51216 0.63782,-12.0177303 -1.39171,-14.3711103 -3.09457,-3.58811001 -6.60577,-3.70205001 -9.26959,-2.84480001"
     style="fill:#e6e7e9;fill-opacity:1;fill-rule:nonzero;stroke:none;stroke-width:0.0352778"
     id="path18" /><path
     d="m 10.254691,14.739173 c 0,-1.01988 0.8267,-1.84644 1.847,-1.84644 1.01988,0 1.84669,0.82656 1.84669,1.84644"
     style="fill:none;stroke:#141414;stroke-width:0.90376;stroke-linecap:round;stroke-linejoin:round;stroke-miterlimit:10;stroke-dasharray:none;stroke-opacity:1"
     id="path20" /><path
     d="m 24.780211,14.739173 c 0,-1.01988 0.82655,-1.84644 1.84679,-1.84644 1.02023,0 1.84679,0.82656 1.84679,1.84644"
     style="fill:none;stroke:#141414;stroke-width:0.90376;stroke-linecap:round;stroke-linejoin:round;stroke-miterlimit:10;stroke-dasharray:none;stroke-opacity:1"
     id="path22" /><path
     d="m 20.518191,22.349993 c 0,0 3.02729,-0.0286 3.70427,-2.91958"
     style="fill:none;stroke:#141414;stroke-width:0.90376;stroke-linecap:round;stroke-linejoin:round;stroke-miterlimit:10;stroke-dasharray:none;stroke-opacity:1"
     id="path24" /></svg>
