<?xml version="1.0" encoding="UTF-8" standalone="no"?>
<!-- Created with Inkscape (http://www.inkscape.org/) -->

<svg
   width="319.53201mm"
   height="282.35281mm"
   viewBox="0 0 319.53201 282.35281"
   version="1.1"
   id="svg1"
   xml:space="preserve"
   sodipodi:docname="bg_kanan_bawah.svg"
   inkscape:version="1.3 (0e150ed6c4, 2023-07-21)"
   xmlns:inkscape="http://www.inkscape.org/namespaces/inkscape"
   xmlns:sodipodi="http://sodipodi.sourceforge.net/DTD/sodipodi-0.dtd"
   xmlns="http://www.w3.org/2000/svg"
   xmlns:svg="http://www.w3.org/2000/svg"><sodipodi:namedview
     id="namedview1"
     pagecolor="#ffffff"
     bordercolor="#666666"
     borderopacity="1.0"
     inkscape:showpageshadow="2"
     inkscape:pageopacity="0.0"
     inkscape:pagecheckerboard="0"
     inkscape:deskcolor="#d1d1d1"
     inkscape:document-units="mm"
     inkscape:zoom="0.38044896"
     inkscape:cx="604.5489"
     inkscape:cy="533.58012"
     inkscape:window-width="1920"
     inkscape:window-height="1001"
     inkscape:window-x="-9"
     inkscape:window-y="-9"
     inkscape:window-maximized="1"
     inkscape:current-layer="layer1" /><defs
     id="defs1" /><g
     inkscape:label="Layer 1"
     inkscape:groupmode="layer"
     id="layer1"
     transform="translate(60.572687,-756.76353)"><path
       d="m 21.194153,1013.547 c 2.5647,-0.5609 5.21053,-0.6667 7.65881,-0.4304 2.53294,0.3317 4.85775,1.0937 6.6428,2.1167 7.67292,4.4203 15.12359,5.0765 16.383,5.1576 0.12348,0.01 0.1905,0.011 0.1905,0.011 l 0.52564,-37.76132 c 0,-3.04447 3.20323,-5.57036 6.33942,-6.17714 l 33.29164,-0.067 c 0,0 0,-0.0494 0,-0.14111 h 0.0459 c 0,0 0.10584,-5.4222 -4.74133,-13.84301 -2.09197,-3.64419 -3.10797,-9.57086 -1.53811,-14.84489 1.81328,-5.91608 6.90386,-10.97491 17.402527,-10.97491 17.40958,0 19.95664,13.90297 17.3355,22.59189 -0.37395,1.19591 -0.83961,2.286 -1.38289,3.22791 -1.8415,3.1997 -2.96686,5.96548 -3.65478,8.16681 -1.17122,3.67595 -1.13242,5.81731 -1.13242,5.81731 h 35.57059 c 0.45861,0 0.93133,-0.0494 1.41111,-0.14111 h 0.51506 c 2.68816,0 4.98122,1.67569 5.9055,4.04283 -0.30339,0.7373 -0.47625,1.54517 -0.47625,2.39183 v 37.45091 c 0,0 0.54327,0.01 1.54869,-0.1305 1.66158,-0.127 6.46995,-0.8361 13.20447,-4.7096 1.778,-1.0266 4.10634,-1.7886 6.63223,-2.1202 8.3573,-0.7373 18.41853,3.3161 18.41853,18.1257 0,3.0445 -0.4057,5.6268 -1.11831,7.8105 H 10.762513 c -0.7831704,-2.219 -1.2276704,-4.8577 -1.2276704,-7.9728 0,-10.8973 5.4504204,-15.9702 11.6593104,-17.5965"
       style="fill:#5499d9;fill-opacity:1;fill-rule:nonzero;stroke:none;stroke-width:0.0352778"
       id="path18" /><path
       d="m 178.87172,1013.1801 c -2.87514,0.254 -5.5492,1.0725 -7.53887,2.219 -5.76438,3.3161 -10.12119,4.3145 -12.29783,4.6108 -1.00542,0.1376 -1.54869,0.1305 -1.54869,0.1305 v -37.45085 c 0,-0.84666 0.17286,-1.65453 0.47625,-2.39183 0.86783,-2.13431 2.87161,-3.68653 5.26344,-3.91231 0.19403,0.0176 0.39511,0.0317 0.59972,0.0317 h 37.45089 c 0,0 0,-0.0247 0,-0.0635 0,-0.0106 0.0988,-5.43277 -4.74133,-13.84653 -1.39347,-2.42005 -2.30364,-5.84552 -2.30011,-9.42269 0.0282,-7.89517 4.53319,-16.4712 18.20686,-16.4712 13.6772,0 18.17864,8.5725 18.21039,16.46414 0.007,3.57717 -0.91016,7.0097 -2.30011,9.42975 -4.84011,8.41376 -4.74133,13.83595 -4.74133,13.84653 0,0.0388 0,0.0635 0,0.0635 h 35.34833 v 62.69919 h -62.78739 c 0.71261,-2.1837 1.11831,-4.766 1.11831,-7.8105 0,-14.8096 -10.06123,-18.863 -18.41853,-18.1257"
       style="fill:#f6b740;fill-opacity:1;fill-rule:nonzero;stroke:none;stroke-width:0.0352778"
       id="path20" /><path
       d="M 51.010933,969.85197 V 932.4046 c 0,0 -3.07622,-0.06 -8.18444,1.97909 -2.03553,0.72672 -4.27214,1.70039 -6.52639,3.00214 -1.01953,0.58914 -2.26131,1.09008 -3.64067,1.47461 -9.1052,2.17311 -23.1880904,-0.67733 -23.1880904,-17.42017 0,-10.01889 4.6037604,-15.113 10.1705904,-17.13442 2.63878,-0.86431 5.45747,-1.14653 8.11036,-1.00542 2.92806,0.23989 5.65503,1.06892 7.67997,2.22956 4.09928,2.36361 8.17034,3.54894 11.2642,4.14161 2.55411,0.65617 4.55436,0.94545 5.3728,1.01953 v -0.41628 c 0.0353,0 0.06,0 0.06,0 v -37.45089 c 0,-0.14111 -0.0141,-0.28222 -0.0212,-0.41981 0.35278,-3.16794 3.03389,-5.63033 6.29708,-5.63033 h 36.38551 c 0,0 0.1023,5.4222 -4.74134,13.843 -4.47322,7.76817 -4.00755,25.95739 15.906747,25.95739 19.91078,0 20.37998,-18.18922 15.91028,-25.95739 -4.84717,-8.4208 -4.74133,-13.843 -4.74133,-13.843 l 9.11578,-0.0811 25.77747,0.0811 h 0.004 c 1.9438,0.60325 3.48544,2.12725 4.12397,4.05695 -0.20814,0.635 -0.32808,1.3088 -0.32808,2.01083 v 37.44736 c 0,0 0.2293,0.007 0.65264,-0.0176 v 0.004 c 0,0 0.75494,0.0141 2.1343,-0.22225 2.83281,-0.40569 7.52475,-1.50636 12.72822,-4.50144 2.50826,-1.44286 6.10306,-2.3742 9.81781,-2.29659 2.67406,0.11995 5.40808,0.70556 7.874,1.905 4.67078,2.44476 8.26559,7.44714 8.26559,16.29834 0,8.25853 -3.12914,13.1692 -7.34131,15.77622 -3.1115,1.77095 -6.74864,2.46592 -10.18822,2.413 -3.21028,-0.14816 -6.23359,-1.016 -8.42787,-2.27894 -4.56847,-2.62467 -8.24794,-3.79942 -10.66447,-4.32153 -1.70744,-0.45861 -2.51883,-0.43744 -2.51883,-0.43744 v 0.0494 c -0.43039,-0.0353 -0.66322,-0.0317 -0.66322,-0.0317 v 37.4509 c 0,0.61736 0.0953,1.21002 0.25752,1.778 -0.98777,2.20839 -3.66536,3.9123 -6.20183,4.39914 -0.47978,0.0917 -0.9525,0.14111 -1.41111,0.14111 h -35.57059 c 0,0 -0.0388,-2.14136 1.13242,-5.81731 0.69144,-2.17664 1.80975,-4.89656 3.61245,-8.02569 0.56444,-0.9772 1.04422,-2.1202 1.42522,-3.36903 2.62114,-8.68892 0.0741,-22.59189 -17.3355,-22.59189 -10.498667,0 -15.589247,5.05883 -17.402527,10.97491 -1.62984,5.30931 -0.62089,11.31006 1.49225,14.98601 4.39208,7.63058 4.72016,12.79877 4.74133,13.70189 0,0.0917 0,0.14111 0,0.14111 l -33.29164,0.067 -0.52917,0.004 c -3.50308,0 -7.39422,-3.11503 -7.39422,-6.61458"
       style="fill:#53c27c;fill-opacity:1;fill-rule:nonzero;stroke:none;stroke-width:0.0352778"
       id="path22" /><path
       d="m 223.611,976.35366 c 0.007,-0.61736 0.19402,-5.87727 4.74133,-13.78303 1.40406,-2.43416 2.31775,-5.89491 2.30011,-9.49325 -0.0317,-7.89164 -4.53319,-16.46414 -18.21039,-16.46414 -13.67367,0 -18.17864,8.57603 -18.20686,16.4712 -0.0176,3.59481 0.89606,7.05203 2.30011,9.48619 4.54731,7.90576 4.73428,13.16567 4.74133,13.78303 0,0.0388 0,0.0635 0,0.0635 h -37.45089 c -0.20461,0 -0.40569,-0.0141 -0.59972,-0.0317 -2.61408,-0.24694 -4.7625,-2.08139 -5.48217,-4.52966 -0.16227,-0.56798 -0.25752,-1.16064 -0.25752,-1.778 v -37.4509 c 0,0 0.23283,-0.004 0.66322,0.0317 0.53269,0.0423 1.38994,0.14464 2.51883,0.38806 2.41653,0.52211 6.096,1.69686 10.66447,4.32153 2.19428,1.26294 5.21759,2.13078 8.42787,2.27894 3.44664,0.15875 7.10494,-0.51152 10.18822,-2.413 4.21217,-2.60702 7.34131,-7.51769 7.34131,-15.77622 0,-8.8512 -3.59481,-13.85359 -8.26559,-16.29834 -2.44828,-1.27705 -5.19289,-1.85561 -7.874,-1.905 -3.71475,-0.0776 -7.30955,0.85373 -9.81781,2.29659 -5.20347,2.99508 -9.89541,4.09575 -12.72822,4.50144 -0.9278,0.13406 -1.65453,0.19403 -2.1343,0.21872 -0.42334,0.0247 -0.65264,0.0176 -0.65264,0.0176 v -37.44736 c 0,-0.70203 0.11994,-1.37583 0.32808,-2.01083 0.83961,-2.51178 3.21028,-4.32506 6.00781,-4.32506 h 2.38125 l 39.2818,0.26811 c 0,0 0.10937,-5.42572 -4.7378,-13.84653 -4.47322,-7.77169 -4.00756,-25.95739 15.90675,-25.95739 19.91431,0 19.88608,17.99873 14.78845,26.55006 -4.97417,8.35025 -3.82764,12.98575 -3.82764,12.98575 l 33.01294,0.23283 v 41.42317 c -1.59455,-0.65616 -3.37961,-1.50989 -5.32694,-2.63172 -3.41489,-1.96497 -8.84061,-2.97392 -13.85359,-1.80269 -6.42408,1.47461 -12.18141,6.52639 -12.18141,17.73061 0,16.81692 12.96811,19.76614 21.68172,17.58245 1.63689,-0.40217 3.12561,-0.98425 4.35328,-1.68981 1.95086,-1.12536 3.73239,-1.9685 5.32694,-2.62467 v 41.69132 H 223.611 c 0,0 0,-0.0247 0,-0.0635"
       style="fill:#f14285;fill-opacity:1;fill-rule:nonzero;stroke:none;stroke-width:0.0352778"
       id="path24" /><path
       d="m 249.27911,939.04036 c -8.71361,2.14841 -21.60411,-0.83609 -21.60411,-17.60009 0,-11.15836 5.715,-16.21367 12.1038,-17.71297 5.01298,-1.17123 10.4387,-0.16228 13.85359,1.80269 1.94733,1.12183 3.73239,1.97556 5.32694,2.63172 v 26.56417 c -1.59455,0.65617 -3.37608,1.49931 -5.32694,2.62467 -1.22767,0.70556 -2.71639,1.28764 -4.35328,1.68981"
       style="fill:#f6b740;fill-opacity:1;fill-rule:nonzero;stroke:none;stroke-width:0.0352778"
       id="path26" /><path
       d="m 247.11658,830.02496 c -8.12094,-0.14464 -16.97567,-4.70253 -16.97567,-18.21039 0,-13.51139 8.86178,-18.06571 16.98978,-18.20691 3.40784,0.074 6.64986,0.9667 8.96409,2.30016 1.00189,0.57502 1.95791,1.07597 2.86455,1.52047 v 28.73375 c -0.87489,0.45156 -1.82033,0.96661 -2.86455,1.56281 -2.31775,1.33702 -5.56331,2.22955 -8.9782,2.30011"
       style="fill:#f46941;fill-opacity:1;fill-rule:nonzero;stroke:none;stroke-width:0.0352778"
       id="path28" /><path
       d="m 229.77403,853.51996 c 5.09763,-8.55134 5.12586,-26.55006 -14.78845,-26.55006 -19.91431,0 -20.37997,18.1857 -15.90675,25.95739 4.84717,8.42081 4.7378,13.84653 4.7378,13.84653 l -39.2818,-0.26811 -2.79048,-0.0176 c -3.49602,0 -5.2458,-3.89114 -5.2458,-7.38717 l 0.0388,-35.40831 c 0,0 -1.92616,-0.81138 -10.3505,4.03225 -2.39889,1.37937 -5.79261,2.28953 -9.3345,2.30364 -7.62,-0.0529 -15.74447,-4.56847 -15.74447,-18.21391 0,-19.90025 17.64947,-20.17895 25.42822,-15.71273 0,0 0.007,0.003 0.0141,0.007 0.13759,0.0811 0.28223,0.16228 0.42334,0.23989 8.20561,4.59317 14.32983,4.2792 14.32983,4.2792 v -37.52851 c 0,-3.5031 1.24884,-6.3359 4.74839,-6.3359 h 0.3175 37.44736 c 0,0 0,0.021 0,0.063 -0.007,0.6279 -0.19402,5.8878 -4.7378,13.783 -2.75872,4.7907 -3.63361,13.5396 0.762,19.5474 1.61219,2.2366 3.93347,4.0746 7.12964,5.1682 0.0635,0.021 0.12347,0.042 0.18697,0.064 0.0564,0.021 0.11994,0.039 0.17992,0.06 2.14841,0.71264 4.68136,1.11833 7.64822,1.11833 19.91431,0 20.3835,-18.18923 15.91028,-25.95743 -4.84717,-8.4243 -4.74133,-13.8465 -4.74133,-13.8465 l 32.8048,0.088 v 40.57647 c -0.90664,-0.4445 -1.86266,-0.94545 -2.86455,-1.52047 -2.31423,-1.3335 -5.55625,-2.2261 -8.96409,-2.3002 -8.03275,-0.1658 -16.98978,4.22989 -16.98978,18.20695 0,13.97353 8.94998,18.37266 16.97567,18.21039 3.41489,-0.0706 6.66045,-0.96309 8.9782,-2.30011 1.04422,-0.5962 1.98966,-1.11125 2.86455,-1.56281 v 40.5765 l -33.01294,-0.23283 c 0,0 -1.14653,-4.6355 3.82764,-12.98575"
       style="fill:#7f44a6;fill-opacity:1;fill-rule:nonzero;stroke:none;stroke-width:0.0352778"
       id="path30" /><path
       d="m -37.776187,1012.9403 c -3.40077,0.071 -6.63575,0.9666 -8.94997,2.293 -6.50522,3.7465 -11.21481,4.5332 -13.02456,4.7025 -0.53622,0.046 -0.82197,0.042 -0.82197,0.042 v -37.45087 c 0,-0.78316 0.1517,-1.53458 0.40922,-2.22602 0.77612,-2.0567 2.58234,-3.60186 4.79426,-4.00403 0.34572,0.06 0.70202,0.0988 1.06891,0.0988 h 37.45089 c 0,0 0.0388,2.09902 -1.09714,5.71147 -0.69497,2.16253 -1.80269,4.84364 -3.58069,7.92692 -0.51506,0.89605 -0.95956,1.93322 -1.32645,3.06211 -2.87866,8.63952 -0.58561,23.10342 17.1732296,23.10342 10.36461,0 15.45519,-4.9318 17.3319704,-10.7527 1.82034,-5.4116 0.81139,-11.63811 -1.35819,-15.41283 -4.3074204,-7.47889 -4.7025304,-12.58712 -4.7378104,-13.63839 l 39.1195304,-0.20461 c 0,0 0,0 0.004,0 3.49955,0 7.91633,2.94922 7.91633,6.44877 l -0.52564,37.76136 c 0,0 -0.067,-0 -0.1905,-0.011 -1.25941,-0.081 -8.71008,-0.7373 -16.383,-5.1576 -1.78505,-1.0231 -4.10986,-1.7851 -6.6428,-2.1167 -2.46592,-0.3246 -5.12586,-0.2364 -7.65881,0.4304 -6.20889,1.6263 -11.6593104,6.6992 -11.6593104,17.5965 0,3.1151 0.4445,5.7539 1.2276704,7.9728 h -32.77658 c 0.78316,-2.2225 1.2453,-4.8507 1.2453,-7.9728 0,-13.9841 -8.97114,-18.3797 -17.00742,-18.2033"
       style="fill:#f46941;fill-opacity:1;fill-rule:nonzero;stroke:none;stroke-width:0.0352778"
       id="path42" /></g></svg>
