<?xml version="1.0" encoding="UTF-8" standalone="no"?>
<!-- Created with Inkscape (http://www.inkscape.org/) -->

<svg
   width="318.05737mm"
   height="282.25403mm"
   viewBox="0 0 318.05737 282.25403"
   version="1.1"
   id="svg1"
   xml:space="preserve"
   xmlns:inkscape="http://www.inkscape.org/namespaces/inkscape"
   xmlns:sodipodi="http://sodipodi.sourceforge.net/DTD/sodipodi-0.dtd"
   xmlns="http://www.w3.org/2000/svg"
   xmlns:svg="http://www.w3.org/2000/svg"><sodipodi:namedview
     id="namedview1"
     pagecolor="#ffffff"
     bordercolor="#666666"
     borderopacity="1.0"
     inkscape:showpageshadow="2"
     inkscape:pageopacity="0.0"
     inkscape:pagecheckerboard="0"
     inkscape:deskcolor="#d1d1d1"
     inkscape:document-units="mm" /><defs
     id="defs1" /><g
     inkscape:label="Layer 1"
     inkscape:groupmode="layer"
     id="layer1"
     transform="translate(489.3943,-756.76353)"><path
       d="m -489.39389,819.42046 32.70775,0.0635 c 0,0 0,0.0494 -10e-4,0.14111 h 0.0441 c 0,0 0.10887,5.4222 -4.74045,13.84301 -2.09462,3.64419 -3.10469,9.57086 -1.53924,14.84489 1.81486,5.91608 6.90534,10.97491 17.40461,10.97491 17.41029,0 19.95664,-13.90297 17.33303,-22.59189 -0.37077,-1.19591 -0.83785,-2.286 -1.37795,-3.22791 -1.84538,-3.1997 -2.96827,-5.96548 -3.66007,-8.16681 -1.16734,-3.67595 -1.12748,-5.81731 -1.12748,-5.81731 h 35.57271 c 0.45473,0 0.92745,0.0494 1.40687,0.14111 h 0.51435 c 2.69099,0 4.98158,-1.67569 5.90339,-4.04283 -0.30198,-0.7373 -0.4699,-1.54517 -0.4699,-2.39183 v -37.45089 c 0,0 0.54151,-0.007 1.54481,0.13052 1.66194,0.127 6.47242,0.83609 13.20412,4.70959 1.78047,1.02658 4.1081,1.78858 6.63681,2.12019 8.35378,0.73731 18.41747,-3.31611 18.41747,-18.12572 0,-3.04447 -0.40922,-5.62681 -1.11901,-7.8105 h -136.65451 v 62.65686"
       style="fill:#5499d9;fill-opacity:1;fill-rule:nonzero;stroke:none;stroke-width:0.0352778"
       id="path32" /><path
       d="m -370.03784,782.69982 c -2.87726,-0.254 -5.55343,-1.07244 -7.54204,-2.21897 -5.76439,-3.31611 -10.12154,-4.31447 -12.29889,-4.61081 -1.0033,-0.13758 -1.54481,-0.13052 -1.54481,-0.13052 v 37.45089 c 0,0.84666 0.16792,1.65453 0.4699,2.39183 0.87242,2.13431 2.87443,3.68653 5.26556,3.91231 0.19685,-0.0176 0.39687,-0.0317 0.59937,-0.0317 h 37.4523 c 0,0 0,0.0247 0,0.0635 0,0.0106 0.0991,5.43277 -4.7431,13.84653 -1.39206,2.42005 -2.30575,5.84552 -2.30293,9.42269 0.0332,7.89517 4.53672,16.4712 18.21216,16.4712 13.67155,0 18.17934,-8.5725 18.21074,-16.46414 0.006,-3.57717 -0.90805,-7.0097 -2.30117,-9.42975 -4.84117,-8.41376 -4.74169,-13.83595 -4.74169,-13.84653 0,-0.0388 0,-0.0635 0,-0.0635 h 37.44948 c 0.2025,0 0.40217,0.0141 0.60219,0.0317 3.21628,-0.30339 5.73547,-3.0092 5.73547,-6.30414 v -37.45089 c 0,0 5.42254,-0.10584 13.8437,4.74133 7.77064,4.47322 25.95951,4.00403 25.95951,-15.90675 0,-3.04447 -0.43004,-5.62328 -1.17828,-7.8105 h -109.84901 c 0.70979,2.18369 1.11901,4.76603 1.11901,7.8105 0,14.80961 -10.06369,18.86303 -18.41747,18.12572"
       style="fill:#f6b740;fill-opacity:1;fill-rule:nonzero;stroke:none;stroke-width:0.0352778"
       id="path34" /><path
       d="m -396.89446,929.10614 c 1.94733,-0.60325 3.48932,-2.12725 4.12856,-4.05695 -0.21202,-0.635 -0.33197,-1.3088 -0.33197,-2.01083 V 885.591 c 0,0 0.23284,-0.007 0.65582,0.0176 v -0.004 c 0,0 0.75388,-0.0141 2.13183,0.22225 2.83175,0.40569 7.52687,1.50636 12.73034,4.50144 2.50684,1.44286 6.10059,2.3742 9.8171,2.29659 2.67618,-0.11995 5.40738,-0.70556 7.87153,-1.905 4.67431,-2.44476 8.27088,-7.44714 8.27088,-16.29834 0,-8.25853 -3.1309,-13.1692 -7.34766,-15.77622 -3.11044,-1.77095 -6.74546,-2.46592 -10.18363,-2.413 -3.21099,0.14816 -6.23429,1.016 -8.42822,2.27894 -4.56671,2.62467 -8.24759,3.79942 -10.66341,4.32153 -1.71274,0.45861 -2.52307,0.43744 -2.52307,0.43744 v -0.0494 c -0.42862,0.0353 -0.65722,0.0317 -0.65722,0.0317 v -37.4509 c 0,-0.61736 0.0896,-1.21002 0.25506,-1.778 -0.99096,-2.20839 -3.66572,-3.9123 -6.2029,-4.39914 -0.47942,-0.0917 -0.95214,-0.14111 -1.40687,-0.14111 H -434.351 c 0,0 -0.0399,2.14136 1.12748,5.81731 0.69568,2.17664 1.81046,4.89656 3.61597,8.02569 0.56057,0.9772 1.04458,2.1202 1.42205,3.36903 2.62361,8.68892 0.0773,22.59189 -17.33303,22.59189 -10.49927,0 -15.58975,-5.05883 -17.40461,-10.97491 -1.6261,-5.30931 -0.61874,-11.31006 1.49514,-14.98601 4.39321,-7.63058 4.7184,-12.79877 4.74045,-13.70189 10e-4,-0.0917 10e-4,-0.14111 10e-4,-0.14111 l -32.70775,-0.0635 V 929.1061 h 35.26814 c 0,0 0.10457,-5.4222 -4.73907,-13.843 -4.47312,-7.76817 -4.00459,-25.95739 15.90816,-25.95739 19.91113,0 20.38103,18.18922 15.90781,25.95739 -4.84505,8.4208 -4.74169,13.843 -4.74169,13.843 l 9.15424,0.0811 25.74184,-0.0811 v 0"
       style="fill:#53c27c;fill-opacity:1;fill-rule:nonzero;stroke:none;stroke-width:0.0352778"
       id="path36" /><path
       d="m -325.30244,819.4628 c 0,0 0,0.0247 0,0.0635 0.007,0.61736 0.19403,5.87727 4.74169,13.78303 1.40158,2.43416 2.31634,5.89491 2.30117,9.49325 -0.0314,7.89164 -4.53919,16.46414 -18.21074,16.46414 -13.67544,0 -18.179,-8.57603 -18.21216,-16.4712 -0.0138,-3.59481 0.90276,-7.05203 2.30293,-9.48619 4.54731,-7.90576 4.73499,-13.16567 4.7431,-13.78303 0,-0.0388 0,-0.0635 0,-0.0635 h -37.4523 c -0.2025,0 -0.40252,0.0141 -0.59937,0.0317 -2.61409,0.24694 -4.76391,2.08139 -5.4804,4.52966 -0.16546,0.56798 -0.25506,1.16064 -0.25506,1.778 v 37.4509 c 0,0 0.2286,0.004 0.65722,-0.0317 0.53622,-0.0423 1.39065,-0.14464 2.52307,-0.38806 2.41582,-0.52211 6.0967,-1.69686 10.66341,-4.32153 2.19393,-1.26294 5.21723,-2.13078 8.42822,-2.27894 3.44346,-0.15875 7.10353,0.51152 10.18363,2.413 4.21676,2.60702 7.34766,7.51769 7.34766,15.77622 0,8.8512 -3.59657,13.85359 -8.27088,16.29834 -2.44616,1.27705 -5.18971,1.85561 -7.87153,1.905 -3.71651,0.0776 -7.31026,-0.85373 -9.8171,-2.29659 -5.20347,-2.99508 -9.89859,-4.09575 -12.73034,-4.50144 -0.92604,-0.13406 -1.65488,-0.19403 -2.13183,-0.21872 -0.42298,-0.0247 -0.65582,-0.0176 -0.65582,-0.0176 v 37.44736 c 0,0.70203 0.11995,1.37583 0.33197,2.01083 0.84067,2.51178 3.20957,4.32506 6.0071,4.32506 h 2.38231 l 39.2811,-0.26811 c 0,0 0.10619,5.42572 -4.74169,13.84653 -4.4704,7.77169 -4.00332,25.95739 15.90923,25.95739 19.9143,0 19.88643,-17.99873 14.78915,-26.55006 -4.97311,-8.35025 -3.828,-12.98575 -3.828,-12.98575 l 36.90797,-0.25753 c 2.62643,-0.77611 4.54343,-3.20322 4.54343,-6.07836 v -37.42972 c -0.68651,0.007 -5.92561,0.22577 -13.76539,4.74133 -3.41595,1.96497 -8.84273,2.97392 -13.85324,1.80269 -6.42196,-1.47461 -12.18459,-6.52639 -12.18459,-17.73061 0,-16.81692 12.96847,-19.76614 21.68455,-17.58245 1.63442,0.40217 3.12561,0.98425 4.35328,1.68981 4.18641,2.40947 7.63023,3.59481 10.03617,4.18042 2.38548,0.56797 3.72922,0.54328 3.72922,0.54328 v -37.4509 c 0,-3.29494 -2.51919,-6.00075 -5.73547,-6.30766 -0.20002,-0.0176 -0.39969,-0.0317 -0.60219,-0.0317 h -37.44948"
       style="fill:#4763b8;fill-opacity:1;fill-rule:nonzero;stroke:none;stroke-width:0.0352778"
       id="path38" /><path
       d="m -237.46077,819.68857 c 0,0 0.10443,-5.42219 -4.74345,-13.843 -4.4704,-7.77169 -4.00191,-25.95739 15.91099,-25.95739 6.73982,0 11.25008,2.08492 14.09594,5.1435 5.56578,5.97606 4.77203,15.67392 1.81469,20.81389 -4.30495,7.47889 -4.70464,12.58712 -4.73886,13.63839 -0.004,0.13759 -0.004,0.20461 -0.004,0.20461 h 37.45089 c 0.34325,0 0.67804,-0.0318 1.00894,-0.0882 3.01766,-0.48331 5.32871,-3.09033 5.32871,-6.24769 v -37.44737 c 0,0 -0.006,0 -0.0152,0 -0.29492,-0.004 -5.64586,0.0282 -13.82995,4.74134 -2.27647,1.3088 -5.44865,2.19427 -8.79334,2.29305 -8.07402,0.23283 -17.16617,-4.12397 -17.16617,-18.20333 0,-3.12914 0.4699,-5.75028 1.25554,-7.97278 h -32.79073 c 0.7814,2.2225 1.23331,4.85422 1.23331,7.97278 0,19.91078 -18.18851,20.37997 -25.96056,15.91028 -8.42116,-4.84717 -13.84406,-4.74134 -13.84406,-4.74134 v 37.44737 c 0,3.09033 2.21192,5.65855 5.13891,6.21947 0.38841,0.0741 0.78811,0.11641 1.20015,0.11641 h 37.44842"
       style="fill:#f14285;fill-opacity:1;fill-rule:nonzero;stroke:none;stroke-width:0.0352778"
       id="path40" /><path
       d="m -454.24565,1037.5289 c -0.28939,-2.159 -1.2747,-6.5441 -4.61917,-12.3543 -0.54984,-0.956 -1.02941,-2.0426 -1.40836,-3.2103 -1.02528,-3.1432 -1.33533,-6.8968 -0.39137,-10.3505 1.5627,-5.7115 6.55659,-10.6151 17.44331,-10.6151 19.91113,0 20.64561,16.4042 16.17239,24.1759 -4.84505,8.4208 -4.74169,13.843 -4.74169,13.843 h 37.4509 c 3.50026,0 6.72782,-2.734 6.72782,-6.2371 v -37.52852 c 0,0 -6.11999,-0.31398 -14.32913,4.27919 -0.13899,0.0776 -0.28116,0.15875 -0.42439,0.23989 -0.005,0.003 -0.01,0.007 -0.0152,0.007 -7.77628,4.46614 -25.4247,4.18744 -25.4247,-15.71272 0,-13.64545 8.12483,-18.161 15.74271,-18.21392 3.49885,-0.0247 6.89011,0.89605 9.33768,2.30364 8.42257,4.84364 10.34768,4.03225 10.34768,4.03225 l -0.0374,-35.40831 c 0,-3.49603 -0.97825,-7.66939 -4.47992,-7.67292 v 0 l -25.74184,0.0811 -66.75759,0.20461 v 109.62571 h 35.26814 c 0,0 0.0125,-0.5186 -0.1199,-1.4887"
       style="fill:#f46941;fill-opacity:1;fill-rule:nonzero;stroke:none;stroke-width:0.0352778"
       id="path44" /><path
       d="m -442.95666,889.30575 c -19.91275,0 -20.38128,18.18922 -15.90816,25.95739 4.84364,8.4208 4.73907,13.843 4.73907,13.843 h 11.16909 11.16612 c 0,0 -0.10336,-5.4222 4.74169,-13.843 4.47322,-7.76817 4.00332,-25.95739 -15.90781,-25.95739"
       style="fill:#f46941;fill-opacity:1;fill-rule:nonzero;stroke:none;stroke-width:0.0352778"
       id="path46" /></g></svg>
