<?xml version="1.0" encoding="UTF-8" standalone="no"?>
<!-- Created with Inkscape (http://www.inkscape.org/) -->

<svg
   width="211.53967mm"
   height="248.12628mm"
   viewBox="0 0 211.53967 248.12628"
   version="1.1"
   id="svg5"
   xml:space="preserve"
   sodipodi:docname="foto.svg"
   inkscape:export-filename="..\..\alphabets\images\foto.png"
   inkscape:export-xdpi="96"
   inkscape:export-ydpi="96"
   inkscape:version="1.2 (dc2aedaf03, 2022-05-15)"
   xmlns:inkscape="http://www.inkscape.org/namespaces/inkscape"
   xmlns:sodipodi="http://sodipodi.sourceforge.net/DTD/sodipodi-0.dtd"
   xmlns="http://www.w3.org/2000/svg"
   xmlns:svg="http://www.w3.org/2000/svg"><sodipodi:namedview
     id="namedview7"
     pagecolor="#ffffff"
     bordercolor="#000000"
     borderopacity="0.25"
     inkscape:showpageshadow="2"
     inkscape:pageopacity="0.0"
     inkscape:pagecheckerboard="0"
     inkscape:deskcolor="#d1d1d1"
     inkscape:document-units="mm"
     showgrid="false"
     inkscape:zoom="0.31555145"
     inkscape:cx="321.65911"
     inkscape:cy="529.23224"
     inkscape:window-width="1920"
     inkscape:window-height="1017"
     inkscape:window-x="1912"
     inkscape:window-y="-8"
     inkscape:window-maximized="1"
     inkscape:current-layer="layer1" /><defs
     id="defs2" /><g
     inkscape:label="Layer 1"
     inkscape:groupmode="layer"
     id="layer1"
     transform="translate(-298.38019,87.48953)"><g
       id="g1929"
       inkscape:export-filename="..\..\alphabets\images\foto.png"
       inkscape:export-xdpi="96"
       inkscape:export-ydpi="96"><path
         d="m 441.83023,-41.794222 -37.76839,-37.768391 -37.592,37.592002 -2.07081,-2.070806 39.66281,-39.662808 39.83919,39.839197 -2.0708,2.070806"
         style="fill:#606a97;fill-opacity:1;fill-rule:nonzero;stroke:none;stroke-width:0.0352778"
         id="path404" /><path
         d="m 409.91795,-81.633419 c 0,3.234973 -2.62114,5.856112 -5.85611,5.856112 -3.23497,0 -5.85611,-2.621139 -5.85611,-5.856112 0,-3.234972 2.62114,-5.856111 5.85611,-5.856111 3.23497,0 5.85611,2.621139 5.85611,5.856111"
         style="fill:#ff593a;fill-opacity:1;fill-rule:nonzero;stroke:none;stroke-width:0.0352778"
         id="path406" /><path
         d="M 298.38019,160.63674 V -50.899417 H 509.91987 V 160.63674 H 298.38019"
         style="fill:#ff593a;fill-opacity:1;fill-rule:nonzero;stroke:none;stroke-width:0.0352778"
         id="path408" /><path
         d="m 368.78406,150.7519 h -59.81348 c -0.39158,0 -0.70555,-0.31397 -0.70555,-0.70555 V 90.144675 c 0,-0.388055 0.31397,-0.705555 0.70555,-0.705555 0.38806,0 0.70556,0.3175 0.70556,0.705555 v 59.196115 h 59.10792 c 0.38805,0 0.70555,0.3175 0.70555,0.70556 0,0.39158 -0.3175,0.70555 -0.70555,0.70555"
         style="fill:#f1f3f2;fill-opacity:1;fill-rule:nonzero;stroke:none;stroke-width:0.0352778"
         id="path410" /><path
         d="m 499.33301,150.7519 h -59.99339 c -0.38806,0 -0.70556,-0.31397 -0.70556,-0.70555 0,-0.38806 0.3175,-0.70556 0.70556,-0.70556 h 59.28783 V 90.144675 c 0,-0.388055 0.31398,-0.705555 0.70556,-0.705555 0.38806,0 0.70556,0.3175 0.70556,0.705555 v 59.901675 c 0,0.39158 -0.3175,0.70555 -0.70556,0.70555"
         style="fill:#f1f3f2;fill-opacity:1;fill-rule:nonzero;stroke:none;stroke-width:0.0352778"
         id="path412" /><path
         d="m 499.33301,20.294671 c -0.39158,0 -0.70556,-0.313972 -0.70556,-0.705556 V -39.607 h -59.19964 c -0.38805,0 -0.70555,-0.3175 -0.70555,-0.705555 0,-0.388056 0.3175,-0.705556 0.70555,-0.705556 h 59.9052 c 0.38806,0 0.70556,0.3175 0.70556,0.705556 v 59.90167 c 0,0.391584 -0.3175,0.705556 -0.70556,0.705556"
         style="fill:#f1f3f2;fill-opacity:1;fill-rule:nonzero;stroke:none;stroke-width:0.0352778"
         id="path414" /><path
         d="m 308.97058,20.294671 c -0.39158,0 -0.70555,-0.313972 -0.70555,-0.705556 v -59.90167 c 0,-0.388056 0.31397,-0.705556 0.70555,-0.705556 h 59.90167 c 0.39159,0 0.70556,0.3175 0.70556,0.705556 0,0.388055 -0.31397,0.705555 -0.70556,0.705555 h -59.19611 v 59.196115 c 0,0.391584 -0.3175,0.705556 -0.70556,0.705556"
         style="fill:#f1f3f2;fill-opacity:1;fill-rule:nonzero;stroke:none;stroke-width:0.0352778"
         id="path416" /><path
         d="M 321.81169,137.20876 V -27.471443 H 486.4919 V 137.20876 H 321.81169"
         style="fill:#f1f3f2;fill-opacity:1;fill-rule:nonzero;stroke:none;stroke-width:0.0352778"
         id="path418" /><path
         d="M 474.77615,-15.755693 V 125.49301 H 333.52392 V -15.755693 h 141.25223"
         style="fill:#a2c3f2;fill-opacity:1;fill-rule:nonzero;stroke:none;stroke-width:0.0352778"
         id="path420" /><path
         d="m 415.83756,-1.1401083 c 0,0 6.67103,-0.9701389 10.77736,5.7326393 3.18911,5.2034725 2.92806,11.976806 1.89795,18.982973 -1.03011,7.00264 -0.0141,13.962946 2.99508,21.124335 3.00567,7.157862 3.62303,14.87664 -0.23989,19.423946 -3.86292,4.550833 -19.685,3.503083 -22.48606,-6.046612 -2.80105,-9.549695 -0.34572,-52.9872253 7.05556,-59.2172813"
         style="fill:#2a3047;fill-opacity:1;fill-rule:nonzero;stroke:none;stroke-width:0.0352778"
         id="path422" /><path
         d="m 436.78903,123.46807 h -57.19939 c 3.88056,-22.76476 -6.85094,-54.490063 18.94064,-67.36998 10.92553,-4.674306 24.10884,-0.313972 30.57878,9.553223 12.73175,17.212028 3.34081,37.560247 7.67997,57.816757"
         style="fill:#f69d85;fill-opacity:1;fill-rule:nonzero;stroke:none;stroke-width:0.0352778"
         id="path424" /><path
         d="M 398.53028,32.969977 V 61.74959 h 18.36209 V 32.969977 h -18.36209"
         style="fill:#f69d85;fill-opacity:1;fill-rule:nonzero;stroke:none;stroke-width:0.0352778"
         id="path426" /><path
         d="m 451.10123,125.49301 h -87.03028 c 2.80458,-30.645807 1.41464,-59.467753 34.44875,-69.779448 3.70417,7.193139 14.61558,7.323667 18.37267,0 12.63297,2.201333 27.96822,15.494001 29.28761,35.43653 0.71967,6.103056 3.63714,24.927278 4.92125,34.342918"
         style="fill:#f1f3f2;fill-opacity:1;fill-rule:nonzero;stroke:none;stroke-width:0.0352778"
         id="path428" /><path
         d="m 404.32642,49.987978 c 0,0 6.13833,2.469445 12.56595,1.372306 v -9.22514 l -12.56595,7.852834"
         style="fill:#d1836b;fill-opacity:1;fill-rule:nonzero;stroke:none;stroke-width:0.0352778"
         id="path430" /><path
         d="m 410.04848,49.935062 v 0 c 10.51983,-1.735667 17.64241,-11.66989 15.90675,-22.189724 l -1.62984,-9.888362 C 422.58973,7.3371422 412.65551,0.21455846 402.13567,1.9502252 v 0 C 391.61584,3.6823642 384.49325,13.620115 386.22892,24.139949 l 1.62983,9.888362 c 1.73567,10.519834 11.66989,17.63889 22.18973,15.906751"
         style="fill:#f69d85;fill-opacity:1;fill-rule:nonzero;stroke:none;stroke-width:0.0352778"
         id="path432" /><path
         d="m 420.37076,25.409949 c 0.46213,2.794 3.10091,4.684889 5.89491,4.22275 2.794,-0.458611 4.68842,-3.097389 4.22628,-5.891389 -0.46214,-2.797528 -3.10092,-4.688417 -5.89492,-4.226278 -2.794,0.458611 -4.68489,3.097389 -4.22627,5.894917"
         style="fill:#f69d85;fill-opacity:1;fill-rule:nonzero;stroke:none;stroke-width:0.0352778"
         id="path434" /><path
         d="m 395.58106,31.163755 c 0.004,1.030111 0.92075,1.862667 2.04964,1.859139 1.12889,-0.0035 2.04258,-0.843139 2.03905,-1.87325 -0.004,-1.033639 -0.92427,-1.862667 -2.05316,-1.859139 -1.12889,0.0035 -2.04259,0.843139 -2.03553,1.87325"
         style="fill:#d1836b;fill-opacity:1;fill-rule:nonzero;stroke:none;stroke-width:0.0352778"
         id="path436" /><path
         d="m 417.14284,28.468532 c 0.004,1.030112 0.92075,1.862667 2.05317,1.859139 1.12888,-0.0071 2.03905,-0.846666 2.03552,-1.876777 -0.004,-1.030112 -0.92427,-1.862667 -2.05316,-1.855612 -1.12889,0.0035 -2.03906,0.843139 -2.03553,1.87325"
         style="fill:#d1836b;fill-opacity:1;fill-rule:nonzero;stroke:none;stroke-width:0.0352778"
         id="path438" /><path
         d="m 380.969,31.915172 c 0.46214,2.794 3.10092,4.684889 5.89492,4.226278 2.794,-0.462139 4.68489,-3.100917 4.22628,-5.894917 -0.46214,-2.794001 -3.10092,-4.688417 -5.89492,-4.226278 -2.794,0.462138 -4.68842,3.100916 -4.22628,5.894917"
         style="fill:#f69d85;fill-opacity:1;fill-rule:nonzero;stroke:none;stroke-width:0.0352778"
         id="path440" /><path
         d="m 405.01081,36.243755 c -0.0741,0.836084 1.28058,1.633361 3.02683,1.785056 1.74273,0.151694 3.21734,-0.405695 3.28789,-1.23825 0.0741,-0.836084 -1.28411,-1.633361 -3.02683,-1.781528 -1.74625,-0.151695 -3.21733,0.402167 -3.28789,1.234722"
         style="fill:#db7777;fill-opacity:1;fill-rule:nonzero;stroke:none;stroke-width:0.0352778"
         id="path442" /><path
         d="m 406.50659,36.748227 c -0.99836,-0.229305 -2.06375,-0.613833 -3.15031,-1.227666 -0.14464,-0.08114 -0.19403,-0.264584 -0.11289,-0.405695 0.0811,-0.144639 0.26459,-0.197555 0.4057,-0.116416 4.68136,2.631722 9.01347,0.79375 9.0558,0.776111 0.1517,-0.06703 0.32809,0.0035 0.39512,0.155222 0.067,0.151694 -0.004,0.328083 -0.15523,0.395111 -0.14464,0.0635 -2.89278,1.227667 -6.43819,0.423333"
         style="fill:#af5945;fill-opacity:1;fill-rule:nonzero;stroke:none;stroke-width:0.0352778"
         id="path444" /><path
         d="m 413.47042,6.7444755 c 0,0 5.4857,9.4967785 11.12661,12.7705565 0,0 2.96334,-9.9553896 -8.73125,-16.8028067 l -2.39536,4.0322502"
         style="fill:#2a3047;fill-opacity:1;fill-rule:nonzero;stroke:none;stroke-width:0.0352778"
         id="path446" /><path
         d="m 425.38726,27.505449 c -0.12348,-0.02822 -0.21873,-0.134055 -0.23284,-0.268111 -0.17991,-1.957917 1.10067,-2.44475 1.94381,-2.769306 0.381,-0.144639 0.7373,-0.282222 0.8255,-0.483305 0.0494,-0.112889 0.0318,-0.282223 -0.0529,-0.500945 -0.6738,-1.7145 -2.81869,-1.636889 -2.91042,-1.633361 -0.1658,0.0071 -0.30691,-0.123472 -0.31397,-0.28575 -0.007,-0.165806 0.11995,-0.306917 0.28575,-0.313972 0.10936,-0.0071 2.66347,-0.105834 3.49603,2.014361 0.14817,0.377472 0.16228,0.691444 0.0459,0.959556 -0.1905,0.430388 -0.66322,0.613833 -1.16064,0.804333 -0.83608,0.3175 -1.69686,0.649111 -1.55928,2.155472 0.0141,0.165806 -0.10583,0.310445 -0.27163,0.324556 -0.0317,0.0035 -0.0635,0.0035 -0.0952,-0.0035"
         style="fill:#af5945;fill-opacity:1;fill-rule:nonzero;stroke:none;stroke-width:0.0352778"
         id="path448" /><path
         d="m 431.09873,29.675033 c -0.254,1.114777 -1.36172,1.813277 -2.48003,1.559277 -0.14817,-0.03528 -0.29281,-0.08114 -0.42686,-0.148166 -0.64911,-0.306917 -1.09008,-0.931334 -1.17122,-1.636889 -0.0247,-0.225778 -0.0106,-0.458611 0.0423,-0.691445 0.14111,-0.627944 0.55739,-1.125361 1.09361,-1.393472 0.41275,-0.204611 0.89958,-0.275167 1.38289,-0.165806 0.0882,0.01764 0.17286,0.04233 0.254,0.07408 0.96308,0.352778 1.54164,1.379361 1.30528,2.402417 z m -1.016,-2.935112 c -0.13053,-0.05292 -0.26811,-0.09525 -0.40922,-0.127 -0.51153,-0.116416 -1.01953,-0.07761 -1.48167,0.08819 h -0.004 c -0.83255,0.292805 -1.4993,0.994833 -1.7145,1.922639 -0.0741,0.331611 -0.0847,0.659694 -0.0353,0.977194 0.14111,0.980722 0.8255,1.827389 1.79917,2.151945 h 0.004 c 0.0811,0.02822 0.16228,0.04939 0.24694,0.06703 1.43581,0.328083 2.87161,-0.5715 3.1997,-2.010834 0.2928,-1.294694 -0.41275,-2.585861 -1.60514,-3.069167"
         style="fill:#ffb12a;fill-opacity:1;fill-rule:nonzero;stroke:none;stroke-width:0.0352778"
         id="path450" /><path
         d="m 397.66245,21.166032 c -0.0988,-0.02117 -0.1905,-0.07408 -0.26106,-0.151694 -0.18697,-0.204612 -0.17286,-0.525639 0.0317,-0.712612 3.10445,-2.822222 5.86317,-2.187222 5.98311,-2.159 0.27164,0.06703 0.43745,0.338667 0.37042,0.610306 -0.0635,0.268111 -0.33161,0.433917 -0.59972,0.370417 -0.004,0 -0.007,0 -0.007,0 -0.11641,-0.02822 -2.39536,-0.504473 -5.06589,1.922639 -0.127,0.116416 -0.29633,0.155222 -0.45155,0.119944"
         style="fill:#af5945;fill-opacity:1;fill-rule:nonzero;stroke:none;stroke-width:0.0352778"
         id="path452" /><path
         d="m 409.66748,18.093337 c -0.14817,-0.03528 -0.2787,-0.134055 -0.34573,-0.282222 -0.11641,-0.254 -0.004,-0.550333 0.24695,-0.66675 3.15031,-1.446389 6.05014,0.194028 6.17008,0.264583 0.24342,0.141112 0.32456,0.448028 0.18698,0.687917 -0.14112,0.243417 -0.44803,0.324556 -0.68792,0.186972 -0.0423,-0.02469 -2.59292,-1.442861 -5.24934,-0.22225 -0.1023,0.04586 -0.21519,0.05645 -0.32102,0.03175"
         style="fill:#af5945;fill-opacity:1;fill-rule:nonzero;stroke:none;stroke-width:0.0352778"
         id="path454" /><path
         d="m 408.21756,32.652477 c -0.10583,-0.02469 -0.19403,-0.102305 -0.22578,-0.211667 -0.0423,-0.162277 0.0494,-0.324555 0.20814,-0.370416 0.70203,-0.197556 2.12372,-0.800806 2.03906,-1.400528 -0.11642,-0.836083 -1.56281,-4.547306 -2.10961,-5.9055 -0.0635,-0.155223 0.0141,-0.331612 0.1658,-0.391584 0.15522,-0.0635 0.32808,0.01411 0.39158,0.165806 0.0811,0.204611 1.99673,4.967111 2.14842,6.046611 0.17639,1.280584 -2.20133,1.986139 -2.47297,2.06375 -0.0494,0.01411 -0.0988,0.01411 -0.14464,0.0035"
         style="fill:#af5945;fill-opacity:1;fill-rule:nonzero;stroke:none;stroke-width:0.0352778"
         id="path456" /><path
         d="m 403.66673,25.67806 c 0.23636,1.421695 -0.16228,2.670528 -0.889,2.786945 -0.7232,0.119944 -1.49931,-0.934861 -1.73214,-2.356556 -0.23284,-1.418167 0.16228,-2.667 0.889,-2.786945 0.72319,-0.119944 1.4993,0.934862 1.73214,2.356556"
         style="fill:#30313c;fill-opacity:1;fill-rule:nonzero;stroke:none;stroke-width:0.0352778"
         id="path458" /><path
         d="m 415.17081,23.787171 c 0.23283,1.421695 -0.1658,2.667 -0.889,2.786945 -0.72672,0.119944 -1.50283,-0.934861 -1.73567,-2.356556 -0.23283,-1.421695 0.16581,-2.667 0.889,-2.786945 0.7232,-0.119944 1.49931,0.934862 1.73567,2.356556"
         style="fill:#30313c;fill-opacity:1;fill-rule:nonzero;stroke:none;stroke-width:0.0352778"
         id="path460" /><path
         d="M 462.70056,125.49301 H 392.8682 c 0.19755,-1.88383 0.50447,-4.826 0.70203,-6.70983 11.80041,0.4833 25.82333,1.05127 37.58142,1.53458 -4.7237,-13.44789 -17.68828,-43.783252 -14.25928,-64.604198 12.6118,-1.382889 33.93017,7.503584 38.84436,28.469168 3.17147,11.010196 7.16492,27.96822 6.96383,41.31028"
         style="fill:#f1f3f2;fill-opacity:1;fill-rule:nonzero;stroke:none;stroke-width:0.0352778"
         id="path462" /><path
         d="m 455.18287,120.24368 c -0.0212,0.15875 -0.067,0.32455 -0.14817,0.50094 -0.0529,0.11642 -0.11641,0.23636 -0.19755,0.36336 -0.0317,0.0529 -0.067,0.10231 -0.10584,0.15875 v 0 c -0.0529,0.0776 -0.11289,0.15875 -0.17639,0.23989 v 0.004 c -0.7373,0.92428 -2.04611,1.97203 -3.59833,2.95275 -0.39864,0.254 -0.81492,0.50094 -1.24178,0.74436 -0.16933,0.0952 -0.34219,0.19403 -0.51505,0.28575 h -15.89264 c -0.47978,-0.45861 -0.91722,-0.98778 -1.29822,-1.59455 -0.24695,-0.38453 -0.46567,-0.80081 -0.6597,-1.25237 -0.30692,-0.6985 -0.5468,-1.48166 -0.71614,-2.3495 -0.004,-0.0176 -0.007,-0.0317 -0.0106,-0.0459 0,0 0.13758,-0.10583 0.38805,-0.28575 0.73731,-0.52211 2.46945,-1.68275 4.73781,-2.70228 0.28222,-0.127 0.57503,-0.25047 0.87489,-0.37041 0.28928,-0.11995 0.58914,-0.23636 0.89605,-0.34572 1.72862,-0.62089 3.65478,-1.08656 5.63034,-1.13242 0,0 0,0 0.004,0 0.24341,-0.007 0.48683,-0.007 0.73025,0 0.25047,0.0106 0.49388,0.0176 0.73377,0.0282 v 0 c 2.10609,0.10231 3.78531,0.34572 5.14703,0.71614 0.77964,0.20814 1.45345,0.45861 2.04964,0.74789 0,0 0,0 0.004,0 0.36689,0.17286 0.70555,0.36336 1.016,0.56797 0.21872,0.14464 0.42686,0.29281 0.62089,0.44803 0.0988,0.0811 0.19403,0.16228 0.28928,0.24342 0.19755,0.17286 0.38452,0.3563 0.56091,0.54327 0.25047,0.26811 0.47978,0.54681 0.6985,0.83609 0.1517,0.20461 0.20814,0.43744 0.17992,0.6985"
         style="fill:#f69d85;fill-opacity:1;fill-rule:nonzero;stroke:none;stroke-width:0.0352778"
         id="path464" /><path
         d="m 443.96453,115.3577 c 5.13998,-0.37041 10.26231,-1.72508 14.86959,-4.05341 1.71097,-0.89253 3.25261,1.66864 1.67922,2.76225 -1.43933,1.07244 -2.94922,2.08139 -4.52614,2.94216 -3.64066,1.98614 -7.53533,3.59481 -11.59228,4.49439 -4.51908,0.80081 -5.02355,-6.30766 -0.43039,-6.14539"
         style="fill:#f69d85;fill-opacity:1;fill-rule:nonzero;stroke:none;stroke-width:0.0352778"
         id="path466" /><path
         d="m 446.62801,116.95579 c 3.71122,0.2928 7.50711,-0.14817 11.09133,-1.16064 1.84503,-0.16581 4.51203,-2.79047 5.78908,-0.46567 1.11831,3.52778 -11.86038,7.04145 -14.6438,7.4542 -8.36789,2.29305 -7.71525,-6.97089 -2.23661,-5.82789"
         style="fill:#f69d85;fill-opacity:1;fill-rule:nonzero;stroke:none;stroke-width:0.0352778"
         id="path468" /><path
         d="m 462.65823,121.77826 c -0.90311,0.62442 -2.2225,1.02658 -2.95275,1.44992 -0.92075,0.381 -1.85561,0.73378 -2.80106,1.04775 -0.20461,0.0635 -0.40922,0.13053 -0.6103,0.19755 -0.22225,0.067 -0.4445,0.13759 -0.66322,0.20109 -1.06186,0.3175 -2.13431,0.58914 -3.21734,0.81844 h -9.74019 c -0.40217,-0.43039 -0.65264,-0.98072 -0.75847,-1.55928 -0.16228,-0.90664 0.0317,-1.88383 0.56444,-2.61761 0.0741,-0.1023 0.15522,-0.19755 0.24342,-0.28928 0.11994,-0.127 0.254,-0.24694 0.40216,-0.34925 0.62089,-0.43744 1.46756,-0.63147 2.52236,-0.40216 0.79023,0.0988 1.58398,0.17639 2.38126,0.22577 0.79022,0.0459 1.58044,0.0706 2.37419,0.067 1.42169,-0.004 2.84692,-0.0917 4.25803,-0.25753 0.17639,-0.0212 0.34925,-0.0423 0.52211,-0.067 0.79728,-0.10584 1.59455,-0.23636 2.38125,-0.39864 h 0.004 c 0.31044,-0.06 0.61736,-0.127 0.9278,-0.19756 0.23989,-0.067 0.55386,-0.14816 0.87136,-0.23283 0.11995,-0.0353 0.23989,-0.067 0.35631,-0.0952 0.004,0 0.007,-0.004 0.007,-0.004 0.004,0 0.004,0 0.004,0 0.254,-0.0741 0.49389,-0.14817 0.68792,-0.21519 0.62089,-0.28928 1.42169,-0.49389 2.0708,-0.33514 0.46567,0.11289 0.8502,0.41275 1.03717,1.00894 0.28928,0.88547 -0.15875,1.51342 -0.87136,2.00378"
         style="fill:#f69d85;fill-opacity:1;fill-rule:nonzero;stroke:none;stroke-width:0.0352778"
         id="path470" /><path
         d="m 462.19609,125.49301 h -26.60297 c 0.10936,-0.66675 0.40922,-1.3088 0.85372,-1.79917 0.92428,-1.01952 2.47297,-1.41816 4.25803,-0.19755 0.39864,0.15522 0.80433,0.30339 1.21003,0.43744 0.52211,0.17286 1.04775,0.32809 1.58044,0.46567 2.02847,0.52211 4.12045,0.78669 6.21947,0.80786 0.44803,0.004 0.89606,-0.004 1.34056,-0.0212 0.78669,-0.0282 1.57339,-0.0952 2.3495,-0.19402 0.74436,-0.0917 1.48519,-0.2152 2.21544,-0.37042 0.22578,-0.0459 0.44803,-0.0953 0.67381,-0.14817 0.20814,-0.0494 0.4198,-0.1023 0.62794,-0.15522 1.06539,-0.27869 2.11314,-0.62089 3.13267,-1.02658 1.49225,-0.6985 2.68817,1.02658 2.14136,2.20133"
         style="fill:#f69d85;fill-opacity:1;fill-rule:nonzero;stroke:none;stroke-width:0.0352778"
         id="path472" /><path
         d="m 458.52015,115.6999 c 0.0459,0.13758 -0.0176,0.2928 -0.1517,0.35983 -3.89114,1.94381 -7.96219,2.5647 -8.00453,2.56822 -0.16227,0.0247 -0.3175,-0.0882 -0.33866,-0.25047 -0.0247,-0.1658 0.0882,-0.3175 0.25047,-0.34219 0.0423,-0.007 4.02167,-0.61384 7.82461,-2.51531 0.14817,-0.0741 0.32808,-0.0141 0.40217,0.13406 0.007,0.0141 0.0141,0.0282 0.0176,0.0459"
         style="fill:#af5945;fill-opacity:1;fill-rule:nonzero;stroke:none;stroke-width:0.0352778"
         id="path474" /><path
         d="m 459.37034,119.4217 c 0.0423,0.14112 -0.0212,0.29634 -0.15522,0.35984 -0.14111,0.0705 -3.45722,1.67922 -6.78039,2.18017 -0.16228,0.0247 -0.3175,-0.0847 -0.34219,-0.254 -0.0247,-0.16228 0.0882,-0.31751 0.254,-0.3422 3.22791,-0.48683 6.57225,-2.10608 6.604,-2.12372 0.14816,-0.0706 0.32808,-0.0106 0.40216,0.14111 0.007,0.0106 0.0106,0.0247 0.0176,0.0388"
         style="fill:#af5945;fill-opacity:1;fill-rule:nonzero;stroke:none;stroke-width:0.0352778"
         id="path476" /><path
         d="m 443.49534,124.3994 c -0.0741,0.37394 -0.17639,0.74083 -0.31044,1.09361 -11.90625,0.26811 -71.94551,-1.00542 -85.10412,-1.22767 l 15.56103,-56.426805 c 0.34925,-1.241778 0.9278,-2.353028 1.67922,-3.309056 2.30364,-2.931583 6.23006,-4.34975 10.04358,-3.280833 5.12234,1.36525 8.20914,7.062611 6.46289,12.142612 -3.39725,10.212917 -12.70352,38.502172 -15.95966,48.302332 18.53494,-1.57339 38.75969,-3.29494 57.25231,-4.8648 3.56305,-0.46567 7.28133,-0.71614 9.44033,2.75519 v 0.004 c 0.91017,1.39347 1.25236,3.18558 0.93486,4.81189"
         style="fill:#f69d85;fill-opacity:1;fill-rule:nonzero;stroke:none;stroke-width:0.0352778"
         id="path478" /><path
         d="m 348.7357,125.49301 c -0.27517,-31.89464 15.4693,-73.829337 49.784,-69.779448 1.12889,18.14689 -12.64709,55.968198 -13.85006,59.400728 5.25286,-0.0882 30.76223,-0.51153 35.42948,-0.58914 2.55411,3.20675 4.18394,6.99911 4.87186,10.96786 H 348.7357"
         style="fill:#f1f3f2;fill-opacity:1;fill-rule:nonzero;stroke:none;stroke-width:0.0352778"
         id="path480" /><path
         d="m 415.83756,-1.1401083 c 0,0 -7.16492,-7.9092783 -19.64619,-5.1540836 -12.48128,2.7551946 -18.80306,15.6174732 -19.15937,26.1126129 -0.35277,10.498667 -18.3903,22.68714 -10.77736,37.56378 5.05883,9.891889 27.31911,12.269612 33.30223,5.609167 9.00288,-10.015362 -6.14892,-18.302112 -7.95514,-33.390419 -1.07598,-8.98525 5.52802,-14.30514 11.27477,-16.220723 5.74675,-1.915583 12.8517,-8.6113061 12.8517,-8.6113061 l 0.10936,-5.9090282"
         style="fill:#2a3047;fill-opacity:1;fill-rule:nonzero;stroke:none;stroke-width:0.0352778"
         id="path482" /><path
         d="m 422.25459,118.05293 c -0.11289,0 -0.21872,-0.0635 -0.27164,-0.16934 -0.88547,-1.80975 -1.74978,-2.77989 -2.01083,-3.05505 h -44.89098 c -0.0847,0 -0.1658,-0.0353 -0.22225,-0.0988 -0.06,-0.0635 -0.0882,-0.14464 -0.0811,-0.22931 0.0141,-0.14816 1.41464,-14.851941 6.9462,-28.377442 0.0635,-0.155222 0.23989,-0.229305 0.39511,-0.165805 0.15522,0.0635 0.2293,0.239889 0.1658,0.395111 -5.03766,12.319001 -6.62516,25.618726 -6.86858,27.869446 h 44.68284 c 0.0741,0 0.14816,0.0282 0.20461,0.0811 0.0459,0.0423 1.11125,1.04069 2.2225,3.31258 0.0741,0.1517 0.0106,0.33514 -0.13759,0.4057 -0.0423,0.0212 -0.0882,0.0318 -0.13405,0.0318"
         style="fill:#818496;fill-opacity:1;fill-rule:nonzero;stroke:none;stroke-width:0.0352778"
         id="path484" /><path
         d="m 418.22587,125.7964 c -0.14817,0 -0.2787,-0.10583 -0.29986,-0.25753 -0.0106,-0.067 -1.06187,-6.68161 -4.18042,-10.83028 -0.10231,-0.13405 -0.0741,-0.32455 0.06,-0.42333 0.13406,-0.10231 0.32456,-0.0741 0.42686,0.06 3.21028,4.27214 4.25097,10.82323 4.29331,11.10192 0.0247,0.16581 -0.0882,0.32103 -0.254,0.34572 -0.0176,0.004 -0.0317,0.004 -0.0459,0.004"
         style="fill:#818496;fill-opacity:1;fill-rule:nonzero;stroke:none;stroke-width:0.0352778"
         id="path486" /><path
         d="m 436.94073,114.64509 c -0.1517,0 -0.28222,-0.10936 -0.30339,-0.26458 -1.66864,-13.00339 -7.06967,-30.307141 -7.12258,-30.480002 -0.0494,-0.15875 0.0388,-0.328083 0.19755,-0.381 0.16228,-0.04939 0.33161,0.03881 0.381,0.201084 0.0565,0.172861 5.46806,17.525998 7.14728,30.582308 0.0212,0.1658 -0.0953,0.3175 -0.26106,0.34219 -0.0141,0 -0.0282,0 -0.0388,0"
         style="fill:#818496;fill-opacity:1;fill-rule:nonzero;stroke:none;stroke-width:0.0352778"
         id="path488" /><path
         d="m 431.14812,118.39512 c 3.77472,-3.2138 8.19855,-5.68325 12.9293,-7.16844 0.61384,-0.15523 1.5875,-0.45156 2.20839,-0.55739 1.20298,-0.39159 2.91042,-0.39864 3.19617,1.16064 0.30692,1.41464 -1.04422,2.08491 -2.17311,2.3883 -4.5332,1.76036 -8.56897,4.80836 -11.77572,8.44198 -2.8187,3.98638 -8.25148,-1.27001 -4.38503,-4.26509"
         style="fill:#f69d85;fill-opacity:1;fill-rule:nonzero;stroke:none;stroke-width:0.0352778"
         id="path490" /><path
         d="m 407.71309,69.658868 c -1.13242,0 -2.04964,0.917223 -2.04964,2.049639 0,1.128889 0.91722,2.049639 2.04964,2.049639 1.12889,0 2.04964,-0.92075 2.04964,-2.049639 0,-1.132416 -0.92075,-2.049639 -2.04964,-2.049639 z m 0,4.706056 c -1.46756,0 -2.65995,-1.192389 -2.65995,-2.656417 0,-1.467555 1.19239,-2.656416 2.65995,-2.656416 1.46403,0 2.65641,1.188861 2.65641,2.656416 0,1.464028 -1.19238,2.656417 -2.65641,2.656417"
         style="fill:#818496;fill-opacity:1;fill-rule:nonzero;stroke:none;stroke-width:0.0352778"
         id="path492" /><path
         d="m 407.71309,101.2607 c -1.13242,0 -2.04964,0.92075 -2.04964,2.05317 0,1.12889 0.91722,2.04964 2.04964,2.04964 1.12889,0 2.04964,-0.92075 2.04964,-2.04964 0,-1.13242 -0.92075,-2.05317 -2.04964,-2.05317 z m 0,4.70959 c -1.46756,0 -2.65995,-1.19239 -2.65995,-2.65642 0,-1.46756 1.19239,-2.65994 2.65995,-2.65994 1.46403,0 2.65641,1.19238 2.65641,2.65994 0,1.46403 -1.19238,2.65642 -2.65641,2.65642"
         style="fill:#818496;fill-opacity:1;fill-rule:nonzero;stroke:none;stroke-width:0.0352778"
         id="path494" /><path
         d="m 407.71309,85.459786 c -1.13242,0 -2.04964,0.92075 -2.04964,2.049639 0,1.132417 0.91722,2.049639 2.04964,2.049639 1.12889,0 2.04964,-0.917222 2.04964,-2.049639 0,-1.128889 -0.92075,-2.049639 -2.04964,-2.049639 z m 0,4.706056 c -1.46756,0 -2.65995,-1.188861 -2.65995,-2.656417 0,-1.464028 1.19239,-2.656417 2.65995,-2.656417 1.46403,0 2.65641,1.192389 2.65641,2.656417 0,1.467556 -1.19238,2.656417 -2.65641,2.656417"
         style="fill:#818496;fill-opacity:1;fill-rule:nonzero;stroke:none;stroke-width:0.0352778"
         id="path496" /><path
         d="m 424.88631,125.79287 h -76.2 c -0.16581,0 -0.29986,-0.13405 -0.29986,-0.29986 0,-0.1658 0.13405,-0.29986 0.29986,-0.29986 h 76.2 c 0.16581,0 0.29986,0.13406 0.29986,0.29986 0,0.16581 -0.13405,0.29986 -0.29986,0.29986"
         style="fill:#818496;fill-opacity:1;fill-rule:nonzero;stroke:none;stroke-width:0.0352778"
         id="path498" /></g></g></svg>
