<?xml version="1.0" encoding="UTF-8" standalone="no"?>
<!-- Created with Inkscape (http://www.inkscape.org/) -->

<svg
   version="1.1"
   id="svg2"
   width="286.35941"
   height="386.42468"
   viewBox="0 0 286.35941 386.42468"
   sodipodi:docname="6666965.svg"
   xmlns:inkscape="http://www.inkscape.org/namespaces/inkscape"
   xmlns:sodipodi="http://sodipodi.sourceforge.net/DTD/sodipodi-0.dtd"
   xmlns="http://www.w3.org/2000/svg"
   xmlns:svg="http://www.w3.org/2000/svg">
  <defs
     id="defs6">
    <clipPath
       clipPathUnits="userSpaceOnUse"
       id="clipPath138">
      <path
         d="m 4101.7,1036.7 c -17.7,-33.3 -65.1,-63.899 -111.9,-69.802 -15.4,52.202 -30.8,104.402 -46.1,156.502 -10,-52.5 -25.3,-120.6 -35.3,-173.099 -228.4,-50.199 -632.8,-85.199 -860.71,-6.5 C 3103.2,1235.1 3228.6,2381 3301.5,2445 c 13.4,11.7 47.7,14.4 94.2,10.5 119.1,-9.9 318.1,-62.6 449.9,-115.3 63,-25.2 110.7,-50.4 127,-71 111.1,-140.2 108.1,-1048.4 129.1,-1232.5"
         id="path136" />
    </clipPath>
    <clipPath
       clipPathUnits="userSpaceOnUse"
       id="clipPath832">
      <rect
         style="fill:#ff5555;stroke-width:0.155906;paint-order:stroke fill markers"
         id="rect834"
         width="274.19354"
         height="316.60693"
         x="218.04063"
         y="-468.33932"
         transform="scale(1,-1)" />
    </clipPath>
  </defs>
  <sodipodi:namedview
     id="namedview4"
     pagecolor="#ffffff"
     bordercolor="#000000"
     borderopacity="0.25"
     inkscape:showpageshadow="2"
     inkscape:pageopacity="0.0"
     inkscape:pagecheckerboard="0"
     inkscape:deskcolor="#d1d1d1"
     showgrid="false" />
  <g
     id="g8"
     inkscape:groupmode="layer"
     inkscape:label="ink_ext_XXXXXX"
     transform="matrix(1.3333333,0,0,-1.3333333,-327.04855,600.68194)">
    <g
       id="g759"
       transform="translate(-0.5973716,8.960574)"
       clip-path="url(#clipPath832)">
      <path
         d="m 392.74289,351.3303 c -3.80125,-6.5666 -7.60249,-13.14221 -12.16939,-20.02408 -1.18901,6.95393 -2.38704,13.89886 -3.63911,20.58256 5.09836,-0.2432 10.20571,-0.48641 15.8085,-0.55848"
         style="fill:#ff5555;fill-opacity:1;fill-rule:nonzero;stroke:none;stroke-width:0.0900768"
         id="path188" />
      <g
         id="g751"
         transform="translate(-0.5973716,1.7921148)">
        <g
           id="g830">
          <g
             id="g740"
             transform="matrix(-1,0,0,1,706.53714,-10.752689)">
            <path
               d="m 422.261,32.0469 c 0,-4.277 -34.477,-7.7449 -77.006,-7.7449 -42.529,0 -77.006,3.4679 -77.006,7.7449 0,4.2773 34.477,7.7453 77.006,7.7453 42.529,0 77.006,-3.468 77.006,-7.7453"
               style="fill:#7ed3c6;fill-opacity:1;fill-rule:nonzero;stroke:none;stroke-width:0.1"
               id="path108" />
            <path
               d="m 290.4,292.17 c 3.1,5.38 9.55,12.9 6.24,18.37 -2.26,3.74 -7.99,-3.36 -11.55,-6.38 -1.67,4.03 -4.73,19.63 -10.58,18.45 -4.54,-0.92 -2.02,-8.07 -1.3,-12.82 -6.19,17.7 -19.25,15.4 -9.79,-3.52 -4.24,5.52 -8.17,12.4 -12.75,9.5 -3.27,-2.06 3.18,-10.6 6.34,-14.78 -3.7,3.36 -11.92,8.66 -11.72,2.35 0.19,-5.88 19.57,-34.88 32.38,-20.82 4.99,-0.27 9.67,4.34 12.73,9.65"
               style="fill:#f9af8c;fill-opacity:1;fill-rule:nonzero;stroke:none;stroke-width:0.1"
               id="path110" />
            <path
               d="m 338.91,217.88 c 0.1,9.55 -1.25,18.48 -4.75,27.78 -12.73,0.62 -28.42,5.26 -30.16,7.82 -2.89,4.26 -8.97,22.02 -14.44,36.82 -9.69,-5.1 -16.22,-7.66 -27.41,-11.58 3.21,-22.66 10.03,-54.28 15.43,-61.93 3.65,-5.16 31.97,-13.19 47.96,-16.17 4.86,6.38 7.64,9.1 13.37,17.26"
               style="fill:#fdefcd;fill-opacity:1;fill-rule:nonzero;stroke:none;stroke-width:0.1"
               id="path112" />
            <path
               d="m 382.75,57.7801 c 8.84,0.6101 17.68,-6.3899 20.82,-18.55 -17.04,-4.3602 -34.78,-4.4801 -52.04,-0.1 -0.67,6.4097 1.06,13.15 4.25,18.0301 8.71,0.1 17.42,-0.0403 26.97,0.6199"
               style="fill:#f9af8c;fill-opacity:1;fill-rule:nonzero;stroke:none;stroke-width:0.1"
               id="path114" />
            <path
               d="m 402.97,42.5102 c 1.08,-2.4403 1.44,-5.1903 0.89,-8.3204 -17.55,-3.3898 -35.87,-2.7796 -53.29,1.9403 -0.25,2.4199 -0.25,4.8597 0.15,7.1 17.06,-2.8199 34.48,-3.4699 52.25,-0.7199"
               style="fill:#341927;fill-opacity:1;fill-rule:nonzero;stroke:none;stroke-width:0.1"
               id="path116" />
            <path
               d="m 372.66,39.75 c 1.93,8.35 9.26,15.1898 17.65,16.7801 4.48,-0.6903 8.55,-3.6801 10.69,-7.9801 -2.64,0.2699 -5.38,-0.65 -7.33,-2.4602 -1.94,-1.8097 -3.05,-4.4796 -2.96,-7.1398 -5.5,0.3102 -11.01,0.6199 -18.05,0.8"
               style="fill:#341927;fill-opacity:1;fill-rule:nonzero;stroke:none;stroke-width:0.1"
               id="path118" />
            <path
               d="m 402.3,136.3 c -3.16,-25.72 -8.4,-51.3699 -12.76,-79.0102 -9.72,-2.7199 -25.57,-4.1199 -35.89,-1.4597 1.96,21.7898 3.66,47.2299 5.62,69.0199 13.61,3 28.28,5.98 43.03,11.45"
               style="fill:#732c44;fill-opacity:1;fill-rule:nonzero;stroke:none;stroke-width:0.1"
               id="path120" />
            <path
               d="m 310.93,57.7801 c -8.84,0.6101 -17.68,-6.3899 -20.82,-18.55 17.04,-4.3602 34.78,-4.4801 52.04,-0.1 0.67,6.4097 -1.06,13.15 -4.25,18.0301 -8.71,0.1 -17.42,-0.0403 -26.97,0.6199"
               style="fill:#f9af8c;fill-opacity:1;fill-rule:nonzero;stroke:none;stroke-width:0.1"
               id="path122" />
            <path
               d="m 290.71,42.5102 c -1.08,-2.4403 -1.44,-5.1903 -0.89,-8.3204 17.55,-3.3898 35.87,-2.7796 53.29,1.9403 0.25,2.4199 0.25,4.8597 -0.15,7.1 -17.06,-2.8199 -34.48,-3.4699 -52.25,-0.7199"
               style="fill:#341927;fill-opacity:1;fill-rule:nonzero;stroke:none;stroke-width:0.1"
               id="path124" />
            <path
               d="m 321.01,39.75 c -1.93,8.35 -9.26,15.1898 -17.65,16.7801 -4.48,-0.6903 -8.55,-3.6801 -10.69,-7.9801 2.64,0.2699 5.38,-0.65 7.33,-2.4602 1.94,-1.8097 3.05,-4.4796 2.96,-7.1398 5.51,0.3102 11.01,0.6199 18.05,0.8"
               style="fill:#341927;fill-opacity:1;fill-rule:nonzero;stroke:none;stroke-width:0.1"
               id="path126" />
            <path
               d="m 319.56,136.3 c -4.75,-26.83 -9.08,-43.2199 -15.42,-79.0102 9.72,-2.7199 25.57,-4.1199 35.89,-1.4597 7.56,27.7597 11.89,48.3199 18.39,72.1499 -13.62,3 -24.11,2.85 -38.86,8.32"
               style="fill:#732c44;fill-opacity:1;fill-rule:nonzero;stroke:none;stroke-width:0.1"
               id="path128" />
            <path
               d="m 410.17,103.67 c -1.77,-3.33 -6.51,-6.3899 -11.19,-6.9802 -1.54,5.2202 -3.08,10.4402 -4.61,15.6502 -1,-5.25 -2.53,-12.06 -3.53,-17.3099 C 368,90.0102 327.56,86.5102 304.769,94.3801 310.32,123.51 322.86,238.1 330.15,244.5 c 1.34,1.17 4.77,1.44 9.42,1.05 11.91,-0.99 31.81,-6.26 44.99,-11.53 6.3,-2.52 11.07,-5.04 12.7,-7.1 11.11,-14.02 10.81,-104.84 12.91,-123.25"
               style="fill:#f9e6bb;fill-opacity:1;fill-rule:nonzero;stroke:none;stroke-width:0.1"
               id="path130" />
            <g
               id="g132"
               transform="scale(0.1)">
              <g
                 id="g134"
                 clip-path="url(#clipPath138)">
                <path
                   d="m 3527.2,1905.1 c -29.3,2.5 -58.7,5.1 -79.7,11.6 -6.2,89.2 4.3,179.6 21.8,268.1 -63.13,71.08 -92.22,169.91 -75.31,262.19 61.09,-28.98 132.81,-49.67 210.62,-58.52 27.6,-3.14 54.77,-4.66 81.32,-4.66 11.09,0 22.08,0.27 32.93,0.79 45.44,-14.12 88.82,-29.25 126.67,-44.38 -71.3,-87.26 -176.46,-148.23 -286.43,-174.32 -22.5,-84.9 -33.3,-172.9 -31.9,-260.8"
                   style="fill:#f6c476;fill-opacity:1;fill-rule:nonzero;stroke:none"
                   id="path140" />
                <path
                   d="m 3437.65,965.809 c -127.47,0 -254.65,15.812 -377.93,47.231 2.98,18.38 6.08,38.25 9.31,59.55 120.09,-31.11 244.21,-46.78 368.62,-46.78 0.01,0 0.01,0 0.01,0 128.96,0 258.23,16.84 383.63,50.75 24.42,73.22 53.33,158.66 83.74,229.57 l 25.01,58.29 29.19,-56.32 c 32.06,-61.85 65.86,-122.15 95.89,-178.77 16.31,7.53 29.07,15.5 38.78,23.41 1.23,-25.92 2.49,-49.18 3.82,-69.13 -13.73,-7.5 -29.15,-14.34 -46.36,-20.54 l -24.7,-8.88 -12.09,23.29 c -23.56,45.4 -50.77,94.44 -78.3,145.69 -22.62,-59.29 -44.3,-124.21 -63.11,-180.74 l -5.02,-15.08 -15.3,-4.32 c -135.57,-38.249 -275.56,-57.221 -415.19,-57.221 m 407.05,86.091 v 0"
                   style="fill:#f6c476;fill-opacity:1;fill-rule:nonzero;stroke:none"
                   id="path142" />
              </g>
            </g>
            <path
               d="m 377.66,249.83 c 0.28,-4.28 0.56,-8.56 1.33,-13.68 -6,-7.47 -14.94,-12.52 -25.43,-13.15 -6.41,5.2 -9.56,14.12 -7.84,22.19 10.82,1.46 21.65,2.93 31.94,4.64"
               style="fill:#f7937c;fill-opacity:1;fill-rule:nonzero;stroke:none;stroke-width:0.1"
               id="path144" />
            <path
               d="m 313.687,286.63 c 6.348,3.173 14.306,0.119 17.776,-6.822 3.469,-6.941 1.136,-15.14 -5.213,-18.313 -6.348,-3.173 -14.307,-0.119 -17.775,6.822 -3.47,6.941 -1.136,15.14 5.212,18.313"
               style="fill:#f7937c;fill-opacity:1;fill-rule:nonzero;stroke:none;stroke-width:0.1"
               id="path146" />
            <path
               d="m 319.251,297.232 c 3.184,27.992 28.341,48.116 56.189,44.949 27.85,-3.167 47.845,-28.427 44.662,-56.419 -3.184,-27.992 -28.34,-48.115 -56.19,-44.949 -27.849,3.168 -47.845,28.427 -44.661,56.419"
               style="fill:#f9af8c;fill-opacity:1;fill-rule:nonzero;stroke:none;stroke-width:0.1"
               id="path148" />
            <path
               d="m 319.241,271.273 c 1.72,15.123 22.964,25.125 47.448,22.341 24.486,-2.785 42.941,-17.303 41.221,-32.426 -1.72,-15.124 -22.964,-25.126 -47.449,-22.341 -24.484,2.784 -42.939,17.301 -41.22,32.426"
               style="fill:#f9af8c;fill-opacity:1;fill-rule:nonzero;stroke:none;stroke-width:0.1"
               id="path150" />
            <path
               d="m 401.95,289.07 c -3.25,4.61 -4.72,10.44 -4.06,16.05 -16.1,-4.21 -33.46,-3.44 -49.13,2.17 1.03,0.56 2.07,1.12 3.1,1.68 -8.58,-0.51 -16.94,-4.25 -23.03,-10.31 0.1,1.46 0.19,2.93 0.29,4.39 -3.47,-4.28 -6.1,-9.25 -7.69,-14.53 1.34,9.34 4.11,18.47 8.19,26.97 1.04,2.17 2.24,4.38 4.2,5.79 2.02,1.45 4.59,1.86 7.06,2.19 22.32,2.96 45.05,2.84 67.34,-0.35 1.93,-10.08 1.92,-20.52 -6.27,-34.05"
               style="fill:#f7937c;fill-opacity:1;fill-rule:nonzero;stroke:none;stroke-width:0.1"
               id="path152" />
            <path
               d="m 344.152,275.476 c 0.26,2.288 1.806,3.991 3.452,3.804 1.646,-0.187 2.77,-2.194 2.509,-4.483 -0.259,-2.288 -1.805,-3.991 -3.451,-3.804 -1.646,0.188 -2.77,2.194 -2.51,4.483"
               style="fill:#302121;fill-opacity:1;fill-rule:nonzero;stroke:none;stroke-width:0.1"
               id="path154" />
            <path
               d="m 373.787,273.561 c 0.26,2.288 1.806,3.991 3.452,3.804 1.646,-0.187 2.77,-2.194 2.509,-4.482 -0.26,-2.288 -1.806,-3.991 -3.452,-3.804 -1.646,0.187 -2.77,2.193 -2.509,4.482"
               style="fill:#302121;fill-opacity:1;fill-rule:nonzero;stroke:none;stroke-width:0.1"
               id="path156" />
            <path
               d="m 371.75,264.15 c -5.91,-1.26 -12.34,-0.86 -18.36,0.68 -1.6,-3.29 -0.3,-7.52 3.02,-9.82 3.32,-2.29 8.36,-2.44 11.68,-0.34 3.31,2.11 4.61,6.27 3.66,9.48"
               style="fill:#ffffff;fill-opacity:1;fill-rule:nonzero;stroke:none;stroke-width:0.1"
               id="path158" />
            <path
               d="m 390.757,257.786 c -4.905,0 -8.898,2.809 -8.981,6.369 -0.084,3.633 3.934,6.673 8.975,6.79 0.1,0.003 0.199,0.004 0.298,0.004 4.906,0 8.899,-2.809 8.982,-6.37 0.084,-3.633 -3.934,-6.673 -8.974,-6.79 -0.101,-0.002 -0.201,-0.003 -0.3,-0.003"
               style="fill:#f68782;fill-opacity:1;fill-rule:nonzero;stroke:none;stroke-width:0.1"
               id="path160" />
            <path
               d="m 335.298,259.118 c -0.47,0 -0.949,0.027 -1.434,0.082 -5.01,0.57 -8.739,3.959 -8.328,7.569 0.371,3.261 3.992,5.588 8.381,5.588 0.471,0 0.95,-0.026 1.435,-0.082 5.009,-0.569 8.738,-3.958 8.327,-7.569 -0.371,-3.261 -3.992,-5.588 -8.381,-5.588"
               style="fill:#f68782;fill-opacity:1;fill-rule:nonzero;stroke:none;stroke-width:0.1"
               id="path162" />
            <path
               d="m 336.45,291.75 c 0.17,1.64 1.3,3.13 2.68,4.1 1.4,0.99 3.08,1.54 4.77,1.66 1.69,0.12 3.43,-0.2 4.94,-0.96 1.5,-0.76 2.8,-1.99 3.39,-3.52 -1.5,0.65 -2.83,1.07 -4.17,1.29 -1.33,0.23 -2.65,0.28 -3.96,0.2 -1.31,-0.09 -2.61,-0.32 -3.88,-0.74 -1.26,-0.43 -2.5,-1.01 -3.77,-2.03"
               style="fill:#231719;fill-opacity:1;fill-rule:nonzero;stroke:none;stroke-width:0.1"
               id="path164" />
            <path
               d="m 391.55,290.46 c -1.21,1.09 -2.41,1.74 -3.66,2.23 -1.24,0.49 -2.53,0.79 -3.83,0.95 -1.3,0.16 -2.62,0.18 -3.96,0.02 -1.35,-0.15 -2.7,-0.49 -4.23,-1.06 0.67,1.49 2.03,2.65 3.58,3.33 1.55,0.68 3.3,0.9 4.99,0.69 1.68,-0.21 3.33,-0.85 4.67,-1.92 1.31,-1.04 2.36,-2.59 2.44,-4.24"
               style="fill:#231719;fill-opacity:1;fill-rule:nonzero;stroke:none;stroke-width:0.1"
               id="path166" />
            <path
               d="m 414.99,267.08 c -5.23,7.54 -10.53,15.01 -10.88,23.58 -0.4,-2.23 -0.81,-4.47 -1.21,-6.7 -4.49,7.8 -5.47,17.54 -2.63,26.09 -14.74,-3.79 -29.6,-4.39 -44,-2.02 6.29,0.42 12.43,2.65 17.52,6.36 -6.25,-3.05 -13.89,-2.92 -21.28,-3.2 -7.38,-0.28 -15.2,-1.22 -21.01,-5.78 1.38,4.78 3.88,9.22 7.24,12.89 -10.83,-10.35 -17.16,-24.8 -17.97,-39.62 -3.68,7.17 -5.22,15.01 -4.81,22.62 0.39,7.5 2.7,14.78 6.76,20.99 -3.51,-0.82 -5.76,-1.43 -8.02,-2.06 10.05,15.32 26.96,28.58 45.05,31.43 15.11,2.38 33.53,-1.38 44.95,-14.33 2.42,-2.72 4.52,-5.87 6.21,-9.46 9.53,-1.64 15.21,-9.3 16.35,-18.82 1.63,-13.69 -4.07,-30.89 -12.27,-41.97"
               style="fill:#231719;fill-opacity:1;fill-rule:nonzero;stroke:none;stroke-width:0.1"
               id="path168" />
            <path
               d="m 404.7,337.33 c -3.6,2.34 -7.84,3.91 -11.99,5.09 -10.62,3.05 -21.82,4.55 -32.77,2.99 -10.93,-1.56 -21.6,-6.36 -29.08,-14.49 2.26,0.41 4.661,0.09 6.73,-0.92 -10.18,-6.75 -17.86,-17.11 -21.63,-28.7 0.39,7.5 2.7,14.78 6.76,20.99 -3.51,-0.82 -5.76,-1.43 -8.02,-2.06 10.05,15.32 26.96,28.58 45.05,31.43 15.11,2.38 33.53,-1.38 44.95,-14.33"
               style="fill:#362525;fill-opacity:1;fill-rule:nonzero;stroke:none;stroke-width:0.1"
               id="path170" />
            <path
               d="m 406.754,271.243 c 4.939,5.985 13.381,7.174 18.854,2.657 5.474,-4.517 5.908,-13.03 0.968,-19.015 -4.938,-5.986 -13.38,-7.175 -18.853,-2.658 -5.474,4.517 -5.908,13.031 -0.969,19.016"
               style="fill:#f9af8c;fill-opacity:1;fill-rule:nonzero;stroke:none;stroke-width:0.1"
               id="path172" />
            <path
               d="m 420.92,135.13 c -1.81,-3.85 -3.34,-7.83 -4.58,-11.9 -0.37,-1.23 -0.71,-2.59 -0.15,-3.75 0.85,-1.74 3.4,-1.99 5.07,-1.01 1.67,0.98 2.66,2.77 3.58,4.47 2.48,-2.86 5.05,-5.64 7.7,-8.35 1.07,-1.09 2.35,-2.25 3.87,-2.13 2.06,0.16 3.19,2.74 2.65,4.73 -0.54,1.99 -2.16,3.47 -3.71,4.83 2.47,-2.16 5.37,-3.83 8.49,-4.86 1.08,-0.36 2.27,-0.64 3.34,-0.24 1.93,0.72 2.45,3.4 1.57,5.26 -0.87,1.86 -2.67,3.09 -4.39,4.22 1.75,-1.54 3.63,-3.14 5.92,-3.57 2.29,-0.43 5.08,0.85 5.41,3.16 0.42,2.93 -2.92,4.83 -5.7,5.85 2.06,-1.11 4.32,-2.26 6.63,-1.88 2.31,0.38 4.3,3.11 3.05,5.09 -0.58,0.92 -1.66,1.39 -2.66,1.81 -5.9,2.45 -11.8,4.89 -17.7,7.34 -5.41,-4.4 -11.84,-7.55 -18.39,-9.07"
               style="fill:#f9af8c;fill-opacity:1;fill-rule:nonzero;stroke:none;stroke-width:0.1"
               id="path174" />
            <path
               d="m 414.25,128.34 c -9.84,18.55 -17.11,37.25 -24.35,56.95 -3.47,15.96 -3.25,32.06 1.05,45.91 5.48,-1.44 9.55,-4.48 13.25,-7.27 3.39,-2.56 6.05,-5.97 7.96,-9.76 22.47,-44.69 21.5,-49.4 32.16,-69.52 -9.11,-8.29 -22.2,-16.31 -30.07,-16.31"
               style="fill:#fdefcd;fill-opacity:1;fill-rule:nonzero;stroke:none;stroke-width:0.1"
               id="path176" />
          </g>
          <path
             d="m 390.08562,439.75878 c -35.07234,0 -63.5042,-20.76903 -63.5042,-46.38959 0,-25.62057 28.43186,-46.3896 63.5042,-46.3896 35.07234,0 63.5042,20.76903 63.5042,46.3896 0,25.62056 -28.43186,46.38959 -63.5042,46.38959"
             style="fill:#ff5555;fill-opacity:1;fill-rule:nonzero;stroke:none;stroke-width:0.0900768"
             id="path178" />
        </g>
        <text
           xml:space="preserve"
           style="font-size:23.5883px;font-family:'Arial Rounded MT Bold';-inkscape-font-specification:'Arial Rounded MT Bold, Normal';fill:#ffffff;stroke-width:0.118491;paint-order:stroke fill markers"
           x="362.72342"
           y="-400.7652"
           id="text564"
           transform="scale(1,-1)"><tspan
             sodipodi:role="line"
             id="tspan562"
             x="362.72342"
             y="-400.7652"
             style="fill:#ffffff;stroke-width:0.118491">Good</tspan><tspan
             sodipodi:role="line"
             x="362.72342"
             y="-371.27982"
             style="fill:#ffffff;stroke-width:0.118491"
             id="tspan566">Bye</tspan></text>
      </g>
    </g>
  </g>
</svg>
