<?xml version="1.0" encoding="UTF-8" standalone="no"?>
<!-- Created with Inkscape (http://www.inkscape.org/) -->

<svg
   version="1.1"
   id="svg2"
   width="86.282471"
   height="91.332336"
   viewBox="0 0 86.282471 91.332337"
   sodipodi:docname="6780026.svg"
   xmlns:inkscape="http://www.inkscape.org/namespaces/inkscape"
   xmlns:sodipodi="http://sodipodi.sourceforge.net/DTD/sodipodi-0.dtd"
   xmlns="http://www.w3.org/2000/svg"
   xmlns:svg="http://www.w3.org/2000/svg">
  <defs
     id="defs6" />
  <sodipodi:namedview
     id="namedview4"
     pagecolor="#ffffff"
     bordercolor="#000000"
     borderopacity="0.25"
     inkscape:showpageshadow="2"
     inkscape:pageopacity="0.0"
     inkscape:pagecheckerboard="0"
     inkscape:deskcolor="#d1d1d1"
     showgrid="false" />
  <g
     id="g8"
     inkscape:groupmode="layer"
     inkscape:label="ink_ext_XXXXXX"
     transform="matrix(1.3333333,0,0,-1.3333333,-713.15863,-109.53584)">
    <path
       d="m 550.80725,-127.54558 c 2.725,-0.8828 5.461,-1.775 8.207,-2.677 -1.748,-1.6347 -3.497,-3.2711 -5.245,-4.9058 -0.999,2.5379 -1.983,5.0648 -2.962,7.5828 z m 20.953,-0.1641 c -6.47,5.5262 -18.268,7.8614 -25.828,8.7524 -0.301,0.0359 -0.552,0.002 -0.774,-0.0621 -1.018,0.0859 -1.87,-0.2403 -2.463,-0.8289 -0.713,-0.6391 -1.09,-1.6161 -0.914,-2.7801 -0.046,-0.218 -0.062,-0.4602 -0.012,-0.7481 1.32,-7.4968 4.323,-19.1422 10.208,-25.2871 4.726,-4.934 7.723,0.2942 6.294,5.0903 -0.332,1.1117 -0.711,2.2289 -1.102,3.3449 2.607,2.0168 5.416,4.0301 7.447,6.5929 0.808,-0.2218 1.618,-0.455 2.42,-0.6468 4.87,-1.1543 9.92,2.1359 4.724,6.5726"
       style="fill:#62c18d;fill-opacity:1;fill-rule:nonzero;stroke:none;stroke-width:0.1"
       id="path284"
       inkscape:export-filename="abc.svg"
       inkscape:export-xdpi="96"
       inkscape:export-ydpi="96" />
    <path
       d="m 594.34325,-110.94348 c -0.074,-0.095 -0.141,-0.199 -0.197,-0.318 -0.791,-1.645 -2.495,-2.756 -4.294,-2.9509 -0.949,1.5668 -1.912,3.1329 -2.89,4.6989 1.495,0.468 3.017,1.078 4.45,0.923 1.858,-0.202 2.743,-1.157 2.931,-2.353 z m -12.24,14.025004 c 1.217,-0.014 3.479,-0.291 3.899,-1.556 l -1.292,-2.569004 c -0.596,-0.322 -1.31,-0.529 -1.826,-0.816 -0.208,-0.116 -0.408,-0.24 -0.596,-0.373 -1.062,1.603 -2.135,3.194004 -3.222,4.761004 0.943,0.31 1.899,0.568 3.037,0.553 z m 8.983,-4.750004 c 1.854,3.079004 1.797,6.752004 -2.363,9.108004 -3.268,1.849 -7.621,1.927 -11.17,0.979 -1.447,-0.385 -3.893,-1.199 -4.895,-2.569 -0.802,-0.323 -1.25,-0.776 -1.459,-1.311 -0.192,-0.23 -0.314,-0.517 -0.319,-0.845 -0.048,-3.564 2.461,-7.509004 3.974,-10.645004 1.889,-3.915 3.88,-8.3218 6.734,-11.6539 1.516,-1.7699 3.825,-3.9449 6.392,-3.5679 0.945,0.139 1.398,0.4429 1.685,0.8386 2.493,0.9614 4.998,3.4012 6.258,5.1223 2.345,2.2711 3.982,5.2389 3.603,8.2819 -0.511,4.095 -4.573,6.088 -8.44,6.262"
       style="fill:#f9ad0c;fill-opacity:1;fill-rule:nonzero;stroke:none;stroke-width:0.1"
       id="path286" />
    <path
       d="m 560.57325,-96.712476 c -1.14,0.527 -2.384,0.414 -3.546,0.012 -1.066,-0.369 -1.913,-1.097 -2.892,-1.619 -2.739,-1.457 -5.955,0.453 -3.902,3.419 2.528,1.071 5.068,2.21 5.654,4.436 0.375,1.422 -0.049,2.71 -0.889,3.694 -0.288,1.916 -1.503,3.531 -4.215,4.316 -5.946,1.72 -11.788,-4.241 -14.121,-9.072 -0.774,-1.604 -1.23,-3.436 -1.341,-5.299 -1.645,-5.137004 1.36,-10.356004 6.382,-12.698004 4.168,-1.943 8.835,-1.814 12.941,-0.148 2.646,0.834 5.089,2.341 6.796,4.366 2.119,2.512 2.687,6.946004 -0.867,8.593004"
       style="fill:#f14c2e;fill-opacity:1;fill-rule:nonzero;stroke:none;stroke-width:0.1"
       id="path288" />
  </g>
</svg>
