<?xml version="1.0" encoding="UTF-8" standalone="no"?>
<!-- Created with Inkscape (http://www.inkscape.org/) -->

<svg
   width="35.594711mm"
   height="50.722893mm"
   viewBox="0 0 35.594711 50.722893"
   version="1.1"
   id="svg5"
   xml:space="preserve"
   xmlns:inkscape="http://www.inkscape.org/namespaces/inkscape"
   xmlns:sodipodi="http://sodipodi.sourceforge.net/DTD/sodipodi-0.dtd"
   xmlns="http://www.w3.org/2000/svg"
   xmlns:svg="http://www.w3.org/2000/svg"><sodipodi:namedview
     id="namedview7"
     pagecolor="#ffffff"
     bordercolor="#000000"
     borderopacity="0.25"
     inkscape:showpageshadow="2"
     inkscape:pageopacity="0.0"
     inkscape:pagecheckerboard="0"
     inkscape:deskcolor="#d1d1d1"
     inkscape:document-units="mm"
     showgrid="false" /><defs
     id="defs2" /><path
     d="m 35.463564,49.43299 c -0.42686,0.950419 -1.87536,1.288309 -3.24837,1.288309 -1.70216,0 -1.8034,-0.599722 -3.37891,-0.705555 -1.57127,-0.10541 -1.04775,0.726792 -3.19793,0.705555 -2.15406,-0.02081 -6.82131,-2.225675 -8.97537,-2.225675 -2.15018,0 -5.35164,0.890764 -6.66115,1.676823 -1.3137499,0.78987 -5.5629599,0.570089 -6.2977899,0.316795 -0.45614,-0.160549 -1.09855,-0.587446 -1.60091,-1.356113 -0.31256,-0.464679 -0.57044,-1.060133 -0.70979,-1.795322 -0.36759,-1.938478 0.26212,-4.092504 0.99695,-6.660762 0.73484,-2.572491 0.94615,-7.979093 0.94615,-7.979093 0,0 0.21096,-5.457192 -2.20486,-14.112202 C -1.2803559,9.9271702 0.91603409,2.163373e-7 0.91603409,2.163373e-7 H 16.688024 c 0,0 -0.38417,8.9556199836627 -1.22061,16.0263397836627 -0.81527,6.91868 -2.01471,9.6979 -1.75295,13.672577 0.25329,3.831238 0.0677,4.376244 0.8576,6.876698 0.78987,2.500595 2.40771,3.104445 3.17641,3.527072 0.76871,0.426509 3.83505,1.959716 4.65032,2.905866 0.81527,0.946186 2.56822,2.019265 2.56822,2.019265 1.65171,-0.169227 2.36538,0.168663 2.36538,0.168663 1.61784,0 2.11208,0.477344 2.11208,0.477344 1.10243,0 2.36114,0.781367 2.36114,0.781367 0.85337,-0.06766 1.73602,0.768668 1.73602,0.768668 l 0.0423,-0.0042 c 0.2406,-0.0085 1.47426,-0.01281 1.8796,0.933344 0.042,0.09701 0.0759,0.19872 0.0928,0.31683 0.0127,0.05084 0.0212,0.105551 0.0296,0.164818 0.0296,0.304412 -0.0169,0.570089 -0.12242,0.798301"
     style="fill:#ffbfa6;fill-opacity:1;fill-rule:nonzero;stroke:none;stroke-width:0.0352778"
     id="path110-9"
     inkscape:export-filename="kaki.svg"
     inkscape:export-xdpi="96"
     inkscape:export-ydpi="96" /><path
     d="m 35.465334,49.431861 h -7.1e-4 c -0.42968,0.950877 -1.87783,1.290532 -3.24908,1.290532 -1.70074,0 -1.8027,-0.60191 -3.3775,-0.706226 -1.57374,-0.105163 -1.04951,0.725946 -3.2004,0.705555 -2.15124,-0.01944 -6.82166,-2.227474 -8.97325,-2.227474 -2.15159,0 -5.3527,0.891893 -6.66433,1.679293 -1.3116299,0.786977 -5.5618899,0.568572 -6.2967299,0.314607 -0.45685,-0.157656 -1.09608,-0.585258 -1.60161,-1.353255 h -7.1e-4 c -0.30868,-0.467149 -0.56797,-1.060803 -0.70696,-1.795287 -0.36724,-1.941371 0.26282,-4.092645 0.99695,-6.663937 0.73483,-2.571397 0.94509,-7.975918 0.94509,-7.975918 0,0 0.20955,-5.457611 -2.20416,-14.115411 C -1.2817659,9.9254002 0.91533409,2.1633727e-7 0.91533409,2.1633727e-7 H 6.7848541 C 6.4938041,1.3193902 5.5525941,3.9105402 5.2806041,6.7874502 c -0.0956,1.00929 -1.35431,3.03036 -1.39524,4.1655998 -0.0536,1.49648 1.03611,3.36867 1.13207,5.01367 0.0935,1.6062 -0.14958,2.60633 0.14534,4.28026 0.14676,0.83255 0.95779,2.50126 1.06292,3.27406 0.14429,1.06122 0.42263,2.30794 0.50624,3.31156 0.0187,0.22295 -0.0339,0.46221 -0.11818,0.57259 0.54116,6.692831 -0.28399,9.810117 -0.28399,9.810117 0,0 -1.80904,6.861105 1.58115,6.861105 3.3894899,0 8.5114699,-1.330361 11.3746199,0.834672 2.86208,2.163939 5.39468,3.40995 6.59483,3.312513 1.2005,-0.09726 3.53765,-0.329459 4.93253,0.289419 1.39524,0.618984 4.20864,0.57464 4.65173,-0.360645 0.0603,0.139312 0.10125,0.299156 0.11959,0.482318 0.03,0.303706 -0.0152,0.568995 -0.11888,0.797172"
     style="fill:#faa380;fill-opacity:1;fill-rule:nonzero;stroke:none;stroke-width:0.0352778"
     id="path112-0" /><path
     d="m 32.069144,47.298261 c 0,0 0.45014,0.607836 0.46496,1.297975 h 1.38818 c 0,0 1.05727,0.117405 0.92251,-0.727886 -0.13511,-0.847619 -2.77565,-0.570089 -2.77565,-0.570089"
     style="fill:#f6efdd;fill-opacity:1;fill-rule:nonzero;stroke:none;stroke-width:0.0352778"
     id="path114-5" /><path
     d="m 35.465334,49.431861 h -7.1e-4 c -0.42968,0.950877 -1.87783,1.290532 -3.24908,1.290532 -1.70074,0 -1.8027,-0.60191 -3.3775,-0.706226 -1.57374,-0.105163 -1.04951,0.725946 -3.2004,0.705555 -2.15124,-0.01944 -6.82166,-2.227474 -8.97325,-2.227474 -2.15159,0 -5.3527,0.891893 -6.66433,1.679293 -1.3116299,0.786977 -5.5618899,0.568572 -6.2967299,0.314607 -0.45685,-0.157656 -1.09608,-0.585258 -1.60161,-1.353255 h -7.1e-4 c -0.30868,-0.467149 -0.56797,-1.060803 -0.70696,-1.795287 -0.36724,-1.941371 0.26282,-4.092645 0.99695,-6.663937 0.73483,-2.571397 0.94509,-7.975918 0.94509,-7.975918 0,0 0.20955,-5.457611 -2.20416,-14.115411 C -1.2817659,9.9254002 0.91533409,2.1633727e-7 0.91533409,2.1633727e-7 H 3.2757641 C 2.2827041,3.8198802 0.44084409,14.01057 3.0648041,22.1343 c 3.41419,10.568203 -2.04999,22.674549 -0.30797,25.357989 1.74131,2.68291 9.1355299,-1.039883 12.9797499,-1.039883 3.89961,0 7.73395,2.950245 9.76701,2.770681 2.03165,-0.179952 3.82199,-0.802287 6.25969,0.0074 2.43769,0.809872 3.82093,-0.595842 3.82093,-0.595842 0.03,0.303706 -0.0152,0.568995 -0.11888,0.797172"
     style="fill:#e88364;fill-opacity:1;fill-rule:nonzero;stroke:none;stroke-width:0.0352778"
     id="path116-1" /><path
     d="m 35.464624,49.431861 c -0.42968,0.950877 -1.87783,1.290532 -3.24908,1.290532 -1.70074,0 -1.8027,-0.60191 -3.3775,-0.706226 -1.57374,-0.105163 -1.04951,0.725946 -3.2004,0.705555 -2.15124,-0.01944 -6.82166,-2.227474 -8.97325,-2.227474 -2.15159,0 -5.3527,0.891893 -6.66433,1.679293 -1.3116299,0.786977 -5.5618899,0.568572 -6.2967299,0.314607 -0.45685,-0.157656 -1.09608,-0.585258 -1.60161,-1.353255 0,0 1.05869,1.169846 4.20617,1.212814 4.9113699,0.06671 4.7430999,-2.790084 10.5138399,-2.616482 4.3187,0.130105 6.53944,2.739955 8.84519,2.619657 2.3047,-0.119873 2.32234,-0.825429 2.95029,-0.764787 0.79128,0.07578 2.24049,0.671372 3.79765,0.711589 1.07632,0.02745 2.27718,-0.306317 3.04976,-0.865823"
     style="fill:#c96c4e;fill-opacity:1;fill-rule:nonzero;stroke:none;stroke-width:0.0352778"
     id="path118-7" /><path
     d="m 33.543044,47.222484 c -0.34995,-0.03034 -1.4739,0.07578 -1.4739,0.07578 -0.63642,-0.355106 -3.79519,-0.831356 -3.79519,-0.831356 -0.57573,-0.55813 -3.30553,-1.438699 -3.30553,-1.438699 1.65065,-0.170744 2.36503,0.169651 2.36503,0.169651 1.61572,0 2.10961,0.47625 2.10961,0.47625 1.10525,0 2.36467,0.782849 2.36467,0.782849 0.85019,-0.06847 1.73531,0.765528 1.73531,0.765528"
     style="fill:#faa380;fill-opacity:1;fill-rule:nonzero;stroke:none;stroke-width:0.0352778"
     id="path120-1" /><path
     d="m 33.584324,47.220685 -0.0413,0.0018 0.0413,-0.0018"
     style="fill:#faa380;fill-opacity:1;fill-rule:nonzero;stroke:none;stroke-width:0.0352778"
     id="path122-0" /><path
     d="m 14.905084,39.392863 c 0,0 4.76744,1.812678 6.22547,3.349061 1.45768,1.536629 3.93983,2.815449 5.31884,3.397532 1.379,0.581696 4.21569,0.718926 4.21569,1.083698 0,0.364773 -2.99438,0.443865 -3.86115,-0.186584 -0.86678,-0.630449 -2.24579,-0.527085 -4.57024,-2.056306 -2.3248,-1.529363 -10.67788,-6.217709 -7.32861,-5.587401"
     style="fill:#ffd3c1;fill-opacity:1;fill-rule:nonzero;stroke:none;stroke-width:0.0352778"
     id="path124-0" /><path
     d="m 35.556344,48.469871 c -0.29139,0.262114 -0.8449,0.603991 -1.72755,0.637893 -1.43616,0.055 -2.55552,-0.194451 -3.5313,-0.506554 -0.97543,-0.30868 -4.55331,0.190007 -5.1996,0.08417 -0.64628,-0.10541 -3.37044,-1.055829 -5.04331,-2.424218 -1.66828,-1.368813 -4.15219,-2.196748 -6.74123,-1.744875 -2.58515,0.452262 -6.0317899,1.317943 -7.3243699,-0.168557 -1.29681,-1.487029 -1.0347,-4.139495 -0.88688,-5.191478 0.14781,-1.051701 0.86995,-7.497198 0.58278,-9.774132 -0.29139,-2.27227 -2.01048,-9.4022 -2.40347,-12.41386 -0.39688,-3.0159 -0.97966,-5.93478 0.12665,-9.4618498 C 4.5189541,3.9751002 5.2753141,2.163373e-7 5.2753141,2.163373e-7 h 1.83727 c 0,0 -1.67358,9.3598999836627 -1.7526,13.0799397836627 -0.0289,1.34585 2.04399,15.83338 1.87924,16.25558 -0.16474,0.422379 -0.24482,3.691923 -0.31679,4.701185 -0.0759,1.013813 -0.47308,3.155562 0.008,4.076383 0.48577,0.924948 1.639,1.727518 3.2522499,0.895315 0,0 -0.4645999,1.055829 -1.7441299,0.887166 -1.02235,-0.135044 -1.12783,-0.257811 -1.12783,-0.300144 -0.0635,0.177518 -0.65476,1.824955 0.008,2.716001 0.7052,0.942023 4.2703699,0.443442 6.5087499,0.705274 2.24296,0.266382 4.30459,0.266382 5.92631,1.592721 1.62207,1.326515 3.94935,3.366276 5.6896,3.319992 1.73637,-0.0466 4.27038,-0.09701 5.33047,0.44771 1.06469,0.545006 3.9116,0.696736 4.68877,-0.224085 0.042,0.09701 0.0759,0.19872 0.0928,0.31683"
     style="fill:#feb599;fill-opacity:1;fill-rule:nonzero;stroke:none;stroke-width:0.0352778"
     id="path126-3" /><path
     d="m 6.1286841,37.214884 c 0,0 0.0882,2.821516 3.14466,2.351193 0,0 0.58773,-0.05884 0.9108699,-0.558377 0,0 -0.4995299,1.704623 -2.6744099,1.05791 -2.17487,-0.646571 -1.38112,-2.850726 -1.38112,-2.850726"
     style="fill:#faa380;fill-opacity:1;fill-rule:nonzero;stroke:none;stroke-width:0.0352778"
     id="path128-1" /><path
     d="M 14.567834,2.163373e-7 C 14.567834,8.4162202 13.006794,15.25094 12.846984,20.54225 c -0.067,2.21619 -0.4057,10.458488 -1.61361,10.458488 -1.04916,0 -1.3373799,-7.920528 -1.3835899,-12.284108 C 9.8243841,16.18227 9.1950241,5.9979302 9.7231341,2.163373e-7 h 4.8446999"
     style="fill:#ffd3c1;fill-opacity:1;fill-rule:nonzero;stroke:none;stroke-width:0.0352778"
     id="path130-5" /><path
     d="m 11.009014,2.163373e-7 h 2.57034 c 0,0 -0.1196,7.6468099836627 -0.4184,10.0901497836627 -0.2988,2.44369 -0.88159,12.92045 -1.85314,12.99556 -0.97155,0.0752 -0.47837,-21.4336498 -0.2988,-23.0857097836627"
     style="fill:#ffe2d6;fill-opacity:1;fill-rule:nonzero;stroke:none;stroke-width:0.0352778"
     id="path132-2" /><path
     d="m 16.746944,40.607618 c 0,0 2.48602,0.912248 3.30694,1.710549 0.82126,0.798301 2.80564,2.029848 2.66876,2.235165 -0.13688,0.205352 -7.24288,-4.240777 -5.9757,-3.945714"
     style="fill:#ffe2d6;fill-opacity:1;fill-rule:nonzero;stroke:none;stroke-width:0.0352778"
     id="path134-5" /></svg>
